<?xml version="1.0" encoding="UTF-8"?><svg xmlns="http://www.w3.org/2000/svg" width="720" height="720" viewBox="0 0 360 360"><path fill="#32322a" d="M-67.281-41.594a1.614 1.614 0 0 0-.219 3.156s3.932 1.301 10.625 1.844c5.375.436 11.47-.375 11.47-.375a1.614 1.614 0 1 0-.407-3.188s-5.962.738-10.812.344c-6.388-.518-9.875-1.687-9.875-1.687a1.614 1.614 0 0 0-.781-.094zm0-8a1.614 1.614 0 0 0-.219 3.156s3.932 1.301 10.625 1.844c5.375.436 11.47-.375 11.47-.375a1.614 1.614 0 1 0-.407-3.188s-5.962.738-10.812.344c-6.388-.518-9.875-1.687-9.875-1.687a1.614 1.614 0 0 0-.781-.094zm0-8a1.614 1.614 0 0 0-.219 3.156s3.932 1.301 10.625 1.844c5.375.436 11.47-.375 11.47-.375a1.614 1.614 0 1 0-.407-3.188s-5.962.738-10.812.344c-6.388-.518-9.875-1.687-9.875-1.687a1.614 1.614 0 0 0-.781-.094zm0-8a1.614 1.614 0 0 0-.219 3.156s3.932 1.301 10.625 1.844c5.375.436 11.47-.375 11.47-.375a1.614 1.614 0 1 0-.407-3.187s-5.962.737-10.812.343c-6.388-.518-9.875-1.687-9.875-1.687a1.614 1.614 0 0 0-.781-.094zm-11.208-8.437c-8.407.056-11.539 2.645-11.539 2.645v62.784s3.059-2.641 12.906-2.238 11.878 3.855 23.98 4.098 15.144-1.86 15.144-1.86l.174-64.005s-5.446 1.542-16.045 1.628c-10.599.086-13.146-2.696-22.875-3.023a43.41 43.41 0 0 0-1.744-.03zm7.034 4.098s5.094 1.684 14.504 2.151c7.953.395 15.928-.785 15.928-.785v56.883s-4.037 2.116-14.126 1.396c-7.82-.559-16.423-3.517-16.423-3.517l.116-56.128zm-4.912 1.483a1.628 1.628 0 0 1 0 3.255s-2.635.014-4.244.175c-2.7.27-4.534 1.25-4.534 1.25a1.625 1.625 0 1 1-1.512-2.878s2.392-1.265 5.726-1.599c1.927-.192 4.564-.203 4.564-.203zm-1.57 8.022c.9-.023 1.57 0 1.57 0a1.625 1.625 0 0 1 0 3.227s-2.635.013-4.244.174c-2.7.27-4.534 1.25-4.534 1.25a1.625 1.625 0 0 1-1.512-2.878s2.392-1.265 5.726-1.598a42.99 42.99 0 0 1 2.994-.175zm1.57 7.993a1.628 1.628 0 0 1 0 3.256s-2.635-.016-4.244.145c-2.7.27-4.534 1.25-4.534 1.25a1.625 1.625 0 0 1-1.512-2.877s2.392-1.266 5.726-1.6c1.927-.192 4.564-.173 4.564-.173z" color="#000" style="block-progression:tb;text-indent:0;text-transform:none" transform="translate(481.04 370.14) scale(4.7091)"/></svg>