<?xml version="1.0" encoding="UTF-8"?>
<svg id="Layer_1" data-name="Layer 1" xmlns="http://www.w3.org/2000/svg" viewBox="0 0 502.82 217.22">
  <defs>
    <style>
      .cls-1, .cls-2 {
        font-family: ZagBold, 'Zag Bold';
        font-size: 96px;
      }

      .cls-3 {
        letter-spacing: -.16em;
      }

      .cls-4 {
        letter-spacing: -.02em;
      }

      .cls-2, .cls-5 {
        fill: #ff9200;
      }

      .cls-6 {
        letter-spacing: 0em;
      }

      .cls-7 {
        fill: gray;
      }

      .cls-7, .cls-5, .cls-8 {
        fill-rule: evenodd;
      }

      .cls-9 {
        letter-spacing: -.03em;
      }
    </style>
  </defs>
  <g id="logo">
    <path class="cls-8" d="M74.31,13.8c14.51-2.28,25.97,7.37,29.16,15.32,2.36,5.88,1.82,15.94,4.45,21.74,4.08,9.02,12.89,15.36,22.24,16.31,7.69,.78,15.83-4.68,26.68-1.98,11.38,2.83,24.25,16.59,17.3,34.59-3.22,8.33-11.82,15.36-22.73,15.81-7.92,.33-15.38-3.38-22.24-2.47-9.81,1.3-18.47,8.96-21.74,16.8-2.81,6.73-1.69,14.71-4.45,21.25-4.13,9.8-18.13,19.84-33.11,13.84-21.18-8.49-21.76-47.48,7.91-49.42,9.52-.62,16.42,3.66,24.71,1.98,9.22-1.87,16.21-7.59,19.77-15.81,8.28-19.12-5.25-39.21-24.71-40.03-10.42-.44-14.99,4-24.21,1.98-16.63-3.66-25.47-27.03-13.34-41.51,2.64-3.15,8.14-7.43,14.33-8.4Z"/>
    <path class="cls-5" d="M129.16,22.69c9.25-2.07,18.3,2.16,20.75,10.38,3.44,11.53-5.26,25.81-20.75,22.73-17.02-3.38-15.98-29.54,0-33.11Z"/>
    <path class="cls-7" d="M91.61,65.19c36.26-5.69,39.92,47.16,7.91,50.4-8.9,.9-14.04-3.1-22.24-2.47-17.46,1.34-31.25,19.33-23.72,38.54,3.02,7.7,11.96,17.71,25.7,17.79,4.66,.03,11.37-3.1,17.79-2.96,17.64,.36,29.14,18.26,23.23,34.59-7.66,21.17-39.71,21.52-47.93,.99-3.17-7.91-1.93-16.3-4.45-21.74-3.39-7.34-12.12-16.05-24.71-16.31-5.62-.11-11.94,3.96-22.24,2.47-14.22-2.05-25.93-19.73-18.78-36.07,2.34-5.35,9.28-13.64,20.26-14.82,9.59-1.04,15.66,3.1,22.73,2.47,9.58-.85,19.09-6.89,23.23-16.8,2.85-6.82,1.52-14.44,3.95-20.75,2.84-7.38,9.74-13.82,19.27-15.32Z"/>
    <path class="cls-5" d="M40.21,81.99c7.26-1.75,10.78,2.64,10.87,7.91,.18,10.77-17.48,12.66-17.3,0,.06-4.11,1.93-6.82,6.42-7.91Z"/>
    <path class="cls-5" d="M130.65,128.94c8.95-1.84,15.9,3.68,15.81,12.35-.13,13.88-20.87,17.68-25.2,4.45-2.46-7.5,.4-14.95,9.39-16.8Z"/>
    <path class="cls-5" d="M39.23,169.95c16.07-2.19,32.02,13.25,24.21,31.63-3.8,8.95-16.95,17.35-30.14,11.86-20.2-8.4-17.04-40.35,5.93-43.49Z"/>
  </g>
  <text class="cls-1" transform="translate(192.94 81.6)"><tspan x="0" y="0">MD</tspan></text>
  <text class="cls-2" transform="translate(193.9 157.64)"><tspan x="0" y="0">A</tspan><tspan class="cls-4" x="49.82" y="0">N</tspan><tspan class="cls-6" x="93.7" y="0">A</tspan><tspan class="cls-3" x="143.52" y="0">L</tspan><tspan class="cls-9" x="165.5" y="0">Y</tspan><tspan x="204.86" y="0">SIS</tspan></text>
</svg>