<?xml version="1.0" encoding="UTF-8"?>
<svg id="Layer_1" data-name="Layer 1" xmlns="http://www.w3.org/2000/svg" viewBox="0 0 309.88 326.51">
  <defs>
    <style>
      .cls-1, .cls-2 {
        font-family: ZagBold, 'Zag Bold';
        font-size: 96px;
      }

      .cls-3 {
        letter-spacing: -.16em;
      }

      .cls-4 {
        letter-spacing: -.02em;
      }

      .cls-2, .cls-5 {
        fill: #ff9200;
      }

      .cls-6 {
        letter-spacing: 0em;
      }

      .cls-7 {
        fill: gray;
      }

      .cls-7, .cls-5, .cls-8 {
        fill-rule: evenodd;
      }

      .cls-9 {
        letter-spacing: -.03em;
      }
    </style>
  </defs>
  <g id="logo">
    <path class="cls-8" d="M185.92,.38c16.13-2.53,28.86,8.2,32.4,17.03,2.62,6.53,2.02,17.71,4.94,24.17,4.54,10.03,14.32,17.07,24.71,18.12,8.54,.87,17.59-5.2,29.66-2.2,12.65,3.14,26.95,18.44,19.22,38.44-3.58,9.26-13.13,17.07-25.26,17.57-8.8,.37-17.1-3.76-24.71-2.75-10.9,1.45-20.53,9.96-24.17,18.67-3.12,7.48-1.88,16.35-4.94,23.62-4.59,10.89-20.15,22.05-36.8,15.38-23.54-9.43-24.18-52.76,8.79-54.92,10.58-.69,18.25,4.06,27.46,2.2,10.25-2.08,18.01-8.44,21.97-17.58,9.2-21.25-5.83-43.58-27.46-44.48-11.58-.49-16.66,4.45-26.91,2.2-18.48-4.06-28.31-30.04-14.83-46.13,2.94-3.5,9.05-8.26,15.93-9.34Z"/>
    <path class="cls-5" d="M246.88,10.26c10.28-2.3,20.34,2.39,23.07,11.53,3.82,12.82-5.84,28.69-23.07,25.26-18.91-3.76-17.76-32.83,0-36.8Z"/>
    <path class="cls-7" d="M205.14,57.49c40.3-6.33,44.37,52.41,8.79,56.02-9.89,1-15.6-3.45-24.71-2.75-19.4,1.49-34.73,21.48-26.36,42.84,3.35,8.56,13.29,19.68,28.56,19.77,5.18,.03,12.64-3.44,19.77-3.29,19.61,.4,32.38,20.29,25.81,38.45-8.51,23.53-44.13,23.92-53.27,1.1-3.52-8.79-2.15-18.12-4.94-24.16-3.77-8.16-13.48-17.84-27.46-18.12-6.24-.13-13.26,4.4-24.71,2.75-15.81-2.28-28.82-21.93-20.87-40.09,2.6-5.95,10.32-15.16,22.52-16.48,10.66-1.15,17.41,3.44,25.26,2.75,10.64-.94,21.22-7.66,25.81-18.67,3.16-7.58,1.69-16.05,4.39-23.07,3.16-8.2,10.83-15.36,21.42-17.02Z"/>
    <path class="cls-5" d="M148.03,76.17c8.07-1.95,11.98,2.93,12.08,8.79,.2,11.98-19.43,14.07-19.22,0,.07-4.56,2.15-7.58,7.14-8.79Z"/>
    <path class="cls-5" d="M248.53,128.34c9.94-2.04,17.66,4.09,17.57,13.73-.14,15.43-23.19,19.65-28.01,4.94-2.73-8.34,.45-16.62,10.44-18.67Z"/>
    <path class="cls-5" d="M146.93,173.92c17.86-2.44,35.59,14.73,26.91,35.15-4.23,9.95-18.84,19.28-33.5,13.18-22.45-9.34-18.94-44.85,6.59-48.33Z"/>
  </g>
  <text class="cls-2" transform="translate(.96 307.5)"><tspan x="0" y="0">A</tspan><tspan class="cls-4" x="49.82" y="0">N</tspan><tspan class="cls-6" x="93.7" y="0">A</tspan><tspan class="cls-3" x="143.52" y="0">L</tspan><tspan class="cls-9" x="165.5" y="0">Y</tspan><tspan x="204.86" y="0">SIS</tspan></text>
  <text class="cls-1" transform="translate(0 223.96)"><tspan x="0" y="0">MD</tspan></text>
</svg>