<?xml version="1.0" standalone="no"?><!DOCTYPE svg PUBLIC "-//W3C//DTD SVG 1.1//EN" "http://www.w3.org/Graphics/SVG/1.1/DTD/svg11.dtd"><svg t="1697006935509" class="icon" viewBox="0 0 1024 1024" version="1.1" xmlns="http://www.w3.org/2000/svg" p-id="5143" xmlns:xlink="http://www.w3.org/1999/xlink" width="48" height="48"><path d="M138.6690393 516.47444016h463.42990091c49.99169287 0 86.84480371-26.35851634 98.23428545-71.10291202 0.8948873-4.39308606 2.64398762-10.57594852 4.39308606-17.53166812 3.9049654-17.49099015 8.58278786-34.77859794 14.07414735-51.82214352h182.43510151c19.36212066 0 35.10401238 15.86392188 35.10401046 35.10401045v2.6846637l-13.09790412 150.5445515c0 19.32144266 15.7418917 35.10401238 35.06333438 35.10401237s35.10401238-15.86392188 35.10401236-35.10401237v-0.85421117l13.13858209-167.58809706a105.59677161 105.59677161 0 0 0-105.31203517-105.27135909h-20.17565576v-168.48298625A98.11225526 98.11225526 0 0 0 782.78494331 23.87932707H246.78776833a98.15293135 98.15293135 0 0 0-98.27496341 98.27496151v309.71256699h-19.28076654c-57.96432993 0-105.35271124 47.38838135-105.35271131 107.91534669l35.10401235 321.99693598a105.6374496 105.6374496 0 0 0 105.27135722 105.31203517h510.65557794c26.5212226 0 35.99889964-22.77896537 36.03957571-41.1241667-0.04067606-18.38587931-10.57594852-39.00897774-36.03957571-39.00897584H173.73237367c-19.28076659 0-35.06333437-15.8232458-35.06333437-37.70732195l-35.10401236-297.71293442c0-19.32144266 15.7825678-35.10401238 35.10401236-35.10401238z m89.52946546-383.41878861c0-15.8232458 13.09790406-28.92114986 28.96182789-28.92114989h513.66565418c15.8232458 0 28.92114986 13.09790406 28.92114985 28.92114989v158.43583446h-101.20368553c-0.81353509 0-1.70842236 0.8948873-2.56263356 0.89488726a27.00934327 27.00934327 0 0 0-11.4708358 2.60331152c-0.81353509 0-0.81353509 0.8948873-1.66774625 0.89488726a36.24295997 36.24295997 0 0 0-9.6810594 6.14218452c-18.4672315 17.53166814-27.17205141 52.63567858-37.70732197 96.48518698-1.74909845 6.14218449-2.64398762 11.47083582-3.57955289 15.82324579-1.74909845 6.10150842-4.35240998 18.38587931-29.77536107 18.3858774h-373.90043545v-299.66541519zM896.80179653 686.90990716l107.06113553 99.16985067a34.9413042 34.9413042 0 0 1 0 49.99169291 34.65656779 34.65656779 0 0 1-24.56874182 10.53527055 34.65656779 34.65656779 0 0 1-24.56873989-10.57594856l-45.63928294-46.4934941v175.47938195a35.18536452 35.18536452 0 0 1-35.10401236 35.10401235 35.22604254 35.22604254 0 0 1-35.02265827-35.10401235v-174.58449278l-45.63928292 46.49349412a33.19220576 33.19220576 0 0 1-24.5687399 10.57594665 34.65656779 34.65656779 0 0 1-24.56873991-10.57594665 34.9413042 34.9413042 0 0 1 0-49.99169291l106.12556836-98.27496147a36.03957571 36.03957571 0 0 1 24.56874184-9.64038334c7.89128485 0 15.8232458 2.60330962 21.96543027 7.89128296z" p-id="5144"></path></svg>