<?xml version="1.0" standalone="no"?><!DOCTYPE svg PUBLIC "-//W3C//DTD SVG 1.1//EN" "http://www.w3.org/Graphics/SVG/1.1/DTD/svg11.dtd"><svg t="1692534123666" class="icon" viewBox="0 0 1024 1024" version="1.1" xmlns="http://www.w3.org/2000/svg" p-id="6443" width="16" height="16" xmlns:xlink="http://www.w3.org/1999/xlink"><path d="M359.328 489.984l2.944-3.392 2.496-2.24 247.008-249.92a34.976 34.976 0 0 1 49.92 0c12.672 12.896 13.664 33.12 2.944 47.136l-2.976 3.392L437.28 512l224.384 227.04c12.704 12.864 13.696 33.088 2.976 47.104l-2.976 3.392a34.976 34.976 0 0 1-49.92 0L364.8 539.68l-2.496-2.272c-6.368-6.432-9.792-14.72-10.272-23.136v-4.512a35.84 35.84 0 0 1 7.328-19.776z" fill="#000000" p-id="6444"></path></svg>