<?xml version="1.0" standalone="no"?><!DOCTYPE svg PUBLIC "-//W3C//DTD SVG 1.1//EN" "http://www.w3.org/Graphics/SVG/1.1/DTD/svg11.dtd"><svg t="1692508831755" class="icon" viewBox="0 0 1100 1024" version="1.1" xmlns="http://www.w3.org/2000/svg" p-id="4169" width="19.3359375" height="18" xmlns:xlink="http://www.w3.org/1999/xlink"><path d="M642.564398 386.638237l231.875775-231.096479-0.779295 130.92161c-0.354225 10.910134 8.501403 20.474213 19.340692 20.119988h13.885626c10.839289-0.28338 19.978298-6.659433 20.119987-17.711257l0.637606-194.965515 0.28338-10.414219c0.212535-5.455067-1.062675-10.414219-4.604927-13.885626a18.632242 18.632242 0 0 0-13.885625-5.667602l-9.918304 0.212535c-0.14169 0-0.28338 0-0.495915 0.14169L705.616473 63.584912a20.828438 20.828438 0 0 0-20.119988 20.190833v13.95647a22.032804 22.032804 0 0 0 22.670409 20.119988l127.521049 0.28338L604.308084 348.452767a26.92111 26.92111 0 1 0 38.185469 38.18547zM350.257815 604.486696l-232.088309 230.317184 0.779295-130.35485a19.411538 19.411538 0 0 0-19.269847-20.119988h-14.735766c-10.839289 0.354225-19.978298 6.730278-20.119988 17.711257l-0.637605 195.17805-0.28338 10.414219c-0.212535 5.455067 1.062675 10.414219 4.604926 13.885626 3.542251 3.542251 8.288868 5.738447 13.885626 5.596757l9.918304-0.14169c0.14169 0 0.28338 0 0.495915-0.14169l194.18622 0.70845a20.828438 20.828438 0 0 0 20.119988-20.261678v-13.885625a22.032804 22.032804 0 0 0-22.670409-20.119988l-127.450204-0.28338 231.096479-230.317184a26.991955 26.991955 0 0 0 0-38.18547 26.35435 26.35435 0 0 0-37.831245 0z m577.386974 292.731653l-0.495916-195.17805c-0.28338-10.839289-9.209854-17.357032-20.119987-17.711257h-13.885626c-10.839289-0.28338-19.482383 9.280699-19.340692 20.119988l0.779295 130.992456-232.017465-230.95479a26.991955 26.991955 0 1 0-38.256314 38.18547l231.167324 230.246339-127.521049 0.354225a22.316184 22.316184 0 0 0-22.670409 20.119988v13.885625c0.354225 10.910134 9.351544 19.978298 20.190833 20.332523l193.406925-0.779295 0.495915 0.14169 9.918304 0.14169a18.278017 18.278017 0 0 0 13.885625-5.596757c3.542251-3.542251 4.746617-8.501403 4.604927-13.885626l-0.14169-10.414219zM157.134271 118.135583l127.521049-0.28338a22.316184 22.316184 0 0 0 22.670409-20.119988V83.775745A21.040973 21.040973 0 0 0 287.064051 63.584912L92.806986 64.293362 92.311071 64.151672l-9.918304-0.14169a18.278017 18.278017 0 0 0-13.885626 5.596757C64.96489 73.148991 63.760525 78.108143 63.902215 83.42152l0.28338 10.343374 0.495915 195.17805c0.14169 10.910134 9.209854 17.427877 20.119988 17.711257h14.66492c10.910134 0.354225 19.482383-9.209854 19.340693-20.049143l-0.637605-130.35485 231.946619 230.458874a26.92111 26.92111 0 1 0 38.114625-38.18547L157.134271 118.135583z" p-id="4170"></path></svg>