<?xml version="1.0" standalone="no"?><!DOCTYPE svg PUBLIC "-//W3C//DTD SVG 1.1//EN" "http://www.w3.org/Graphics/SVG/1.1/DTD/svg11.dtd"><svg t="1694358208946" class="icon" viewBox="0 0 1024 1024" version="1.1" xmlns="http://www.w3.org/2000/svg" p-id="4014" xmlns:xlink="http://www.w3.org/1999/xlink" width="20" height="20"><path d="M512 96c-229.76 0-416 186.24-416 416s186.24 416 416 416 416-186.24 416-416S741.76 96 512 96z m0 64a352 352 0 1 1 0 704 352 352 0 0 1 0-704z" fill="#262626" p-id="4015"></path><path d="M512 362.666667m42.666667 0a42.666667 42.666667 0 1 0-85.333334 0 42.666667 42.666667 0 1 0 85.333334 0Z" fill="#262626" p-id="4016"></path><path d="M544 458.666667v234.666666a10.666667 10.666667 0 0 1-10.666667 10.666667h-42.666666a10.666667 10.666667 0 0 1-10.666667-10.666667v-234.666666a10.666667 10.666667 0 0 1 10.666667-10.666667h42.666666a10.666667 10.666667 0 0 1 10.666667 10.666667z" fill="#262626" p-id="4017"></path></svg>