<?xml version="1.0" standalone="no"?><!DOCTYPE svg PUBLIC "-//W3C//DTD SVG 1.1//EN" "http://www.w3.org/Graphics/SVG/1.1/DTD/svg11.dtd"><svg t="1697256083503" class="icon" viewBox="0 0 1024 1024" version="1.1" xmlns="http://www.w3.org/2000/svg" p-id="7945" xmlns:xlink="http://www.w3.org/1999/xlink" width="80" height="80"><path d="M712.96 510.506667l-184.106667 107.733333 161.706667 276.266667L778.24 917.333333l73.6-43.093333L874.666667 786.56l-32.426667-55.253333-58.24-15.146667 15.146667-58.453333-58.24-15.146667 15.146666-58.453333-43.093333-73.6z" fill="#90A4AE" p-id="7946"></path><path d="M712.533333 213.333333a256 256 0 1 0-244.906666 384l13.653333 23.253334a42.666667 42.666667 0 0 0 58.453333 15.36l183.893334-107.946667a42.666667 42.666667 0 0 0 15.36-58.24L725.333333 448a256 256 0 0 0-12.8-234.666667zM394.453333 177.92a64 64 0 1 1-22.826666 87.466667 64 64 0 0 1 22.826666-87.466667z" fill="#90A4AE" p-id="7947"></path><path d="M613.205333 593.493333l36.821334-21.546666 183.296 312.917333-36.821334 21.546667z" fill="#607D8B" p-id="7948"></path><path d="M512 576H298.666667v320l64 64h85.333333l64-64v-64l-42.666667-42.666667 42.666667-42.666666-42.666667-42.666667 42.666667-42.666667v-85.333333z" fill="#FF9800" p-id="7949"></path><path d="M661.333333 320a256 256 0 1 0-405.333333 207.573333V554.666667a42.666667 42.666667 0 0 0 42.666667 42.666666h213.333333a42.666667 42.666667 0 0 0 42.666667-42.666666v-27.093334A256 256 0 0 0 661.333333 320zM405.333333 128a64 64 0 1 1-64 64 64 64 0 0 1 64-64z" fill="#FF9800" p-id="7950"></path><path d="M384 597.333333h42.666667v362.666667h-42.666667z" fill="#F57C00" p-id="7951"></path><path d="M626.133333 120.96c-2.986667 0-11.093333-1.28-11.093333-1.28A248.96 248.96 0 0 1 704 199.68c44.586667 27.306667 69.12 59.733333 64 81.92a37.12 37.12 0 0 1-19.2 21.333333c-34.986667 21.333333-100.906667 21.333333-168.32 3.413334-97.493333-26.88-160.853333-85.333333-152.106667-119.466667a36.266667 36.266667 0 0 1 10.453334-16.213333 62.08 62.08 0 0 0-54.826667 14.08c-8.746667 62.72 68.266667 131.84 183.893333 163.626666a388.266667 388.266667 0 0 0 101.546667 14.293334 199.466667 199.466667 0 0 0 99.413333-21.333334 78.506667 78.506667 0 0 0 39.04-48.426666c16.853333-65.493333-61.226667-138.88-181.76-171.946667z" fill="#455A64" p-id="7952"></path></svg>