<?xml version="1.0" standalone="no"?><!DOCTYPE svg PUBLIC "-//W3C//DTD SVG 1.1//EN" "http://www.w3.org/Graphics/SVG/1.1/DTD/svg11.dtd"><svg t="1692416082304" class="icon" viewBox="0 0 1024 1024" version="1.1" xmlns="http://www.w3.org/2000/svg" p-id="3354" width="18" height="18" xmlns:xlink="http://www.w3.org/1999/xlink"><path d="M696.8 443.4c-18.6 0-33.8-15.2-33.8-33.8V209.4c0-2.2 0-4.4-0.2-6.6-0.2-2.2-0.2-4.4-0.4-6.6-0.2-2.2-0.4-4.4-0.8-6.6l-1.2-6.6c-0.4-2.2-1-4.4-1.4-6.4-0.6-2.2-1.2-4.2-1.8-6.4-0.6-2.2-1.4-4.2-2-6.2-0.8-2-1.6-4.2-2.4-6.2-0.8-2-1.8-4-2.6-6l-3-6c-1-2-2.2-3.8-3.2-5.8-1.2-1.8-2.4-3.8-3.6-5.6-1.2-1.8-2.6-3.6-3.8-5.4-1.4-1.8-2.6-3.6-4-5.2-1.4-1.8-2.8-3.4-4.4-5-1.4-1.6-3-3.2-4.6-4.8-1.6-1.6-3.2-3-4.8-4.6-1.6-1.4-3.4-3-5-4.4-1.6-1.4-3.4-2.8-5.2-4-1.8-1.4-3.6-2.6-5.4-3.8-1.8-1.2-3.8-2.4-5.6-3.6-1.8-1.2-3.8-2.2-5.8-3.2l-6-3c-2-1-4-1.8-6-2.6s-4.2-1.6-6.2-2.4c-2-0.8-4.2-1.4-6.2-2-2-0.6-4.2-1.2-6.4-1.8-2.2-0.6-4.4-1-6.4-1.4L548 76c-2.2-0.4-4.4-0.6-6.6-0.8-2.2-0.2-4.4-0.4-6.6-0.4-4.4-0.2-8.8-0.2-13.2 0-2.2 0.2-4.4 0.2-6.6 0.4-2.2 0.2-4.4 0.4-6.6 0.8l-6.6 1.2c-2.2 0.4-4.4 1-6.4 1.4-2.2 0.6-4.2 1.2-6.4 1.8-2.2 0.6-4.2 1.4-6.2 2s-4.2 1.6-6.2 2.4c-2 0.8-4 1.8-6 2.6l-6 3c-2 1-3.8 2.2-5.8 3.2-1.8 1.2-3.8 2.4-5.6 3.6-1.8 1.2-3.6 2.6-5.4 3.8-1.8 1.4-3.6 2.6-5.2 4-1.8 1.4-3.4 2.8-5 4.4-1.6 1.4-3.2 3-4.8 4.6s-3 3.2-4.6 4.8c-1.4 1.6-3 3.4-4.4 5-1.4 1.8-2.8 3.4-4 5.2-1.4 1.8-2.6 3.6-3.8 5.4-1.2 1.8-2.4 3.8-3.6 5.6-1.2 2-2.2 3.8-3.2 5.8l-3 6c-1 2-1.8 4-2.6 6s-1.6 4.2-2.4 6.2c-0.8 2-1.4 4.2-2 6.2-0.6 2.2-1.2 4.2-1.8 6.4-0.6 2.2-1 4.4-1.4 6.4l-1.2 6.6c-0.4 2.2-0.6 4.4-0.8 6.6-0.2 2.2-0.4 4.4-0.4 6.6-0.2 2.2-0.2 4.4-0.2 6.6v200.4c0 18.6-15.2 33.8-33.8 33.8s-33.8-15.2-33.8-33.8V209.4c0-3.4 0-6.6 0.2-10 0.2-3.2 0.4-6.6 0.8-10 0.4-3.2 0.8-6.6 1.2-9.8 0.4-3.2 1-6.6 1.6-9.8 0.6-3.2 1.4-6.6 2.2-9.8 0.8-3.2 1.6-6.4 2.6-9.6 1-3.2 2-6.4 3.2-9.4 1.2-3.2 2.4-6.2 3.6-9.2 1.2-3 2.6-6 4-9s3-6 4.4-8.8c1.6-3 3.2-5.8 4.8-8.6 1.6-2.8 3.4-5.6 5.4-8.4 1.8-2.8 3.8-5.4 5.8-8.2 2-2.6 4-5.2 6.2-7.8 2-2.6 4.2-5 6.4-7.6 2.2-2.4 4.6-4.8 6.8-7.2s4.8-4.6 7.2-6.8c2.4-2.2 5-4.4 7.6-6.4 2.6-2 5.2-4.2 7.8-6.2 2.6-2 5.4-3.8 8.2-5.8l8.4-5.4c2.8-1.6 5.8-3.4 8.6-4.8 3-1.6 6-3 8.8-4.4 3-1.4 6-2.8 9-4 3-1.2 6.2-2.4 9.2-3.6 3.2-1.2 6.2-2.2 9.4-3.2s6.4-1.8 9.6-2.6c3.2-0.8 6.4-1.6 9.6-2.2 3.2-0.6 6.6-1.2 9.8-1.8 3.2-0.4 6.6-0.8 9.8-1.2 3.2-0.4 6.6-0.6 10-0.8 6.6-0.4 13.2-0.4 19.8 0 3.2 0.2 6.6 0.4 10 0.8s6.6 0.8 9.8 1.2c3.2 0.4 6.6 1 9.8 1.6 3.2 0.6 6.6 1.4 9.8 2.2 3.2 0.8 6.4 1.6 9.6 2.6 3.2 1 6.4 2 9.4 3.2 3.2 1.2 6.2 2.4 9.2 3.6 3 1.2 6.2 2.6 9 4 3 1.4 6 3 8.8 4.4 3 1.6 5.8 3.2 8.6 4.8 2.8 1.8 5.6 3.4 8.4 5.4 2.8 1.8 5.4 3.8 8.2 5.8 2.6 2 5.2 4 7.8 6.2 2.6 2 5 4.2 7.6 6.4 2.4 2.2 4.8 4.6 7.2 6.8 2.4 2.4 4.6 4.8 6.8 7.2 2.2 2.4 4.4 5 6.4 7.6 2 2.6 4.2 5.2 6.2 7.8 2 2.6 3.8 5.4 5.8 8.2l5.4 8.4c1.8 2.8 3.4 5.8 5 8.6s3 5.8 4.4 8.8c1.4 3 2.8 6 4 9 1.2 3 2.4 6.2 3.6 9.2 1 3 2.2 6.2 3.2 9.4s1.8 6.4 2.6 9.6c0.8 3.2 1.6 6.4 2.2 9.8 0.6 3.2 1.2 6.4 1.6 9.8 0.4 3.2 0.8 6.6 1.2 9.8 0.4 3.2 0.6 6.6 0.8 10 0.2 3.4 0.2 6.6 0.2 10v200.4c0 18.8-15 33.8-33.6 33.8z" p-id="3355"></path><path d="M764.2 1017.2H291.8c-4.4 0-8.8-0.2-13.2-0.6-4.4-0.4-8.8-1-13-2-4.4-0.8-8.6-2-12.8-3.2-4.2-1.2-8.4-2.8-12.4-4.4-4-1.6-8-3.6-12-5.6-4-2-7.8-4.4-11.4-6.8-3.6-2.4-7.2-5-10.6-7.8-3.4-2.8-6.8-5.8-9.8-9-3-3-6-6.4-8.8-9.8-2.8-3.4-5.4-7-7.8-10.6-2.4-3.6-4.8-7.4-6.8-11.4-2-3.8-4-8-5.6-12-1.6-4-3.2-8.2-4.4-12.4-1.2-4.2-2.4-8.6-3.2-12.8-0.8-4.4-1.6-8.8-2-13.2-0.4-4.4-0.6-8.8-0.6-13.2V511c0-4.4 0.2-8.8 0.6-13.2 0.4-4.4 1-8.8 2-13.2 0.8-4.4 2-8.6 3.2-12.8 1.2-4.2 2.8-8.4 4.4-12.4 1.6-4 3.6-8 5.6-12 2-3.8 4.4-7.6 6.8-11.4 2.4-3.6 5.2-7.2 7.8-10.6 2.8-3.4 5.8-6.8 8.8-9.8 3.2-3.2 6.4-6.2 9.8-8.8 3.4-2.8 7-5.4 10.6-7.8 3.6-2.4 7.4-4.8 11.4-6.8 3.8-2 8-4 12-5.6 4-1.6 8.2-3.2 12.4-4.4 4.2-1.2 8.6-2.4 12.8-3.2 4.4-0.8 8.8-1.6 13.2-2 4.4-0.4 8.8-0.6 13.2-0.6h472.4c4.4 0 8.8 0.2 13.2 0.6 4.4 0.4 8.8 1 13 2 4.4 0.8 8.6 2 12.8 3.2 4.2 1.2 8.4 2.8 12.4 4.4s8 3.6 12 5.6c3.8 2 7.8 4.4 11.4 6.8 3.6 2.4 7.2 5.2 10.6 7.8 3.4 2.8 6.8 5.8 9.8 9 3.2 3.2 6.2 6.4 8.8 9.8 2.8 3.4 5.4 7 7.8 10.6 2.4 3.6 4.8 7.4 6.8 11.4 2 3.8 4 8 5.6 12 1.6 4 3.2 8.2 4.4 12.4 1.2 4.2 2.4 8.6 3.2 12.8 0.8 4.4 1.6 8.8 2 13.2 0.4 4.4 0.6 8.8 0.6 13.2v371.2c0 4.4-0.2 8.8-0.6 13.2-0.4 4.4-1 8.8-2 13-0.8 4.4-2 8.6-3.2 12.8-1.2 4.2-2.8 8.4-4.4 12.4s-3.6 8-5.6 12c-2 3.8-4.4 7.8-6.8 11.4-2.4 3.6-5 7.2-7.8 10.6-2.8 3.4-5.8 6.8-9 9.8-3 3-6.4 6-9.8 8.8-3.4 2.8-7 5.4-10.6 7.8-3.6 2.4-7.4 4.8-11.4 6.8-3.8 2-8 4-12 5.6-4 1.6-8.2 3.2-12.4 4.4-4.2 1.2-8.6 2.4-12.8 3.2-4.4 0.8-8.8 1.6-13.2 2-4 0.8-8.6 1-13 1zM291.8 443.4c-2.2 0-4.4 0.2-6.6 0.4-2.2 0.2-4.4 0.6-6.6 1-2.2 0.4-4.4 1-6.4 1.6-2 0.6-4.2 1.4-6.2 2.2-2 0.8-4 1.8-6 2.8-2 1-3.8 2.2-5.6 3.4-1.8 1.2-3.6 2.6-5.4 4-1.6 1.4-3.4 2.8-5 4.4-1.6 1.6-3 3.2-4.4 5-1.4 1.6-2.8 3.4-4 5.4-1.2 1.8-2.4 3.8-3.4 5.6-1 2-2 4-2.8 6-0.8 2-1.6 4.2-2.2 6.2-0.6 2-1.2 4.2-1.6 6.4-0.4 2.2-0.8 4.4-1 6.6-0.2 2.2-0.4 4.4-0.4 6.6v371.2c0 2.2 0.2 4.4 0.4 6.6 0.2 2.2 0.6 4.4 1 6.6 0.4 2.2 1 4.4 1.6 6.4 0.6 2.2 1.4 4.2 2.2 6.2 0.8 2 1.8 4 2.8 6 1 2 2.2 3.8 3.4 5.6 1.2 1.8 2.6 3.6 4 5.4 1.4 1.6 2.8 3.4 4.4 4.8 1.6 1.6 3.2 3 5 4.4 1.8 1.4 3.4 2.8 5.4 4 1.8 1.2 3.8 2.4 5.6 3.4 2 1 4 2 6 2.8 2 0.8 4.2 1.6 6.2 2.2 2.2 0.6 4.2 1.2 6.4 1.6 2.2 0.4 4.4 0.8 6.6 1 2.2 0.2 4.4 0.4 6.6 0.4h472.4c2.2 0 4.4-0.2 6.6-0.4 2.2-0.2 4.4-0.6 6.6-1 2.2-0.4 4.4-1 6.4-1.6 2.2-0.6 4.2-1.4 6.2-2.2 2-0.8 4-1.8 6-2.8 2-1 3.8-2.2 5.6-3.4 1.8-1.2 3.6-2.6 5.4-4 1.6-1.4 3.4-2.8 4.8-4.4 1.6-1.6 3-3.2 4.4-5 1.4-1.6 2.8-3.4 4-5.4 1.2-1.8 2.4-3.8 3.4-5.6 1-2 2-4 2.8-6 0.8-2 1.6-4.2 2.2-6.2 0.6-2.2 1.2-4.2 1.6-6.4 0.4-2.2 0.8-4.4 1-6.6 0.2-2.2 0.4-4.4 0.4-6.6V511c0-2.2-0.2-4.4-0.4-6.6-0.2-2.2-0.6-4.4-1-6.6-0.4-2.2-1-4.4-1.6-6.4-0.6-2.2-1.4-4.2-2.2-6.2-0.8-2-1.8-4-2.8-6-1-2-2.2-3.8-3.4-5.6-1.2-1.8-2.6-3.6-4-5.4-1.4-1.6-2.8-3.4-4.4-5-1.6-1.6-3.2-3-5-4.4-1.6-1.4-3.4-2.8-5.4-4-1.8-1.2-3.8-2.4-5.6-3.4-2-1-4-2-6-2.8-2-0.8-4.2-1.6-6.2-2.2-2.2-0.6-4.2-1.2-6.4-1.6-2.2-0.4-4.4-0.8-6.6-1-2.2-0.2-4.4-0.4-6.6-0.4H291.8z" p-id="3356"></path></svg>