<?xml version="1.0" standalone="no"?><!DOCTYPE svg PUBLIC "-//W3C//DTD SVG 1.1//EN" "http://www.w3.org/Graphics/SVG/1.1/DTD/svg11.dtd"><svg t="1692500231409" class="icon" viewBox="0 0 1024 1024" version="1.1" xmlns="http://www.w3.org/2000/svg" p-id="7710" width="18" height="18" xmlns:xlink="http://www.w3.org/1999/xlink"><path d="M912 800a16 16 0 0 1 16 16v64a16 16 0 0 1-16 16H112a16 16 0 0 1-16-16v-64a16 16 0 0 1 16-16h800zM333.728 340a10.176 10.176 0 0 1 2.272 6.4v331.2c0 5.76-4.8 10.4-10.72 10.4a10.944 10.944 0 0 1-6.608-2.208l-218.56-165.6a10.16 10.16 0 0 1 0-16.368l218.56-165.616a10.96 10.96 0 0 1 15.04 1.776zM912 576a16 16 0 0 1 16 16v64a16 16 0 0 1-16 16H464a16 16 0 0 1-16-16v-64a16 16 0 0 1 16-16h448z m0-224a16 16 0 0 1 16 16v64a16 16 0 0 1-16 16H464a16 16 0 0 1-16-16v-64a16 16 0 0 1 16-16h448z m0-224a16 16 0 0 1 16 16v64a16 16 0 0 1-16 16H112a16 16 0 0 1-16-16V144a16 16 0 0 1 16-16h800z" fill="#000000" p-id="7711"></path></svg>