<?xml version="1.0" standalone="no"?><!DOCTYPE svg PUBLIC "-//W3C//DTD SVG 1.1//EN" "http://www.w3.org/Graphics/SVG/1.1/DTD/svg11.dtd"><svg t="1692415840359" class="icon" viewBox="0 0 1024 1024" version="1.1" xmlns="http://www.w3.org/2000/svg" p-id="1441" width="18" height="18" xmlns:xlink="http://www.w3.org/1999/xlink"><path d="M512 512c-105.8 0-199-99.4-208-221.6-4.6-62 14.6-119.4 54-161.6C396.8 87 451.6 64 512 64c60 0 114.6 23.2 153.6 65.2 39.6 42.6 58.8 99.8 54.2 161.2C710.8 412.6 617.6 512 512 512z m0-384c-42.4 0-80.6 15.8-107.2 44.4-27 29-40.2 69.4-37 113.4 6.4 88 72.4 162.4 144 162.4s137.6-74.4 144-162.4c3.2-43.4-10-83.6-37.4-113C592 143.8 554 128 512 128z m176 160zM864 960H160c-19.2 0-36.4-8-48.4-22.2-13-15.6-18.2-36.8-14.4-58.2 16.8-93.6 69.6-172.4 152.4-227.4 73.6-49 166.8-76 262.4-76 95.6 0 188.8 27 262.4 76 82.8 55.2 135.6 133.8 152.4 227.4 3.8 21.4-1.4 42.6-14.4 58.2-12 14.2-29.2 22.2-48.4 22.2zM160.4 896h703.2c0.4-1 0.6-2.6 0.2-5.2-13.8-76.2-57-140.2-125-185.6-63.2-42-143.8-65.2-226.8-65.2-83.2 0-163.8 23.2-226.8 65.2-68 45.4-111.2 109.4-125 185.6-0.4 2.6-0.2 4.2 0.2 5.2z m-0.8 0z m704.8 0z" p-id="1442"></path></svg>