<?xml version="1.0" standalone="no"?><!DOCTYPE svg PUBLIC "-//W3C//DTD SVG 1.1//EN" "http://www.w3.org/Graphics/SVG/1.1/DTD/svg11.dtd"><svg t="1695811925819" class="icon" viewBox="0 0 1024 1024" version="1.1" xmlns="http://www.w3.org/2000/svg" p-id="8054" width="14" height="14" xmlns:xlink="http://www.w3.org/1999/xlink"><path d="M500 727.2c-3.6 0-7 0-10.6-0.2-3.6-0.2-7-0.4-10.6-0.8-3.6-0.4-7-0.8-10.4-1.2-3.4-0.6-7-1.2-10.4-1.8-3.4-0.6-6.8-1.4-10.4-2.4-3.4-0.8-6.8-1.8-10.2-2.8-3.4-1-6.8-2.2-10-3.4-3.4-1.2-6.6-2.4-9.8-3.8l-9.6-4.2c-3.2-1.6-6.4-3-9.4-4.8s-6.2-3.4-9.2-5.2c-3-1.8-6-3.6-9-5.6-3-2-5.8-4-8.6-6s-5.6-4.2-8.4-6.4-5.4-4.6-8-6.8c-2.6-2.4-5.2-4.8-7.6-7.2-2.4-2.4-5-5-7.2-7.6-2.4-2.6-4.6-5.2-6.8-8s-4.4-5.4-6.4-8.4c-2-2.8-4.2-5.8-6-8.6-2-3-3.8-6-5.6-9-1.8-3-3.6-6-5.2-9.2-1.6-3.2-3.2-6.2-4.8-9.4-1.6-3.2-3-6.4-4.2-9.6-1.4-3.2-2.6-6.6-3.8-9.8-1.2-3.4-2.2-6.6-3.4-10-1-3.4-2-6.8-2.8-10.2-0.8-3.4-1.6-6.8-2.4-10.4-0.6-3.4-1.2-7-1.8-10.4-0.6-3.4-1-7-1.2-10.4-0.4-3.6-0.6-7-0.8-10.6-0.2-3.6-0.2-7-0.2-10.6s0-7 0.2-10.6c0.2-3.6 0.4-7 0.8-10.6 0.4-3.6 0.8-7 1.2-10.4 0.6-3.4 1.2-7 1.8-10.4 0.6-3.4 1.4-6.8 2.4-10.4 0.8-3.4 1.8-6.8 2.8-10.2 1-3.4 2.2-6.8 3.4-10 1.2-3.4 2.4-6.6 3.8-9.8l4.2-9.6c1.6-3.2 3-6.4 4.8-9.4 1.6-3.2 3.4-6.2 5.2-9.2 1.8-3 3.6-6 5.6-9 2-3 4-5.8 6-8.6s4.2-5.6 6.4-8.4c2.2-2.8 4.6-5.4 6.8-8 2.4-2.6 4.8-5.2 7.2-7.6 2.4-2.4 5-5 7.6-7.2 2.6-2.4 5.2-4.6 8-6.8s5.4-4.4 8.4-6.4c2.8-2 5.8-4.2 8.6-6 3-2 6-3.8 9-5.6 3-1.8 6-3.6 9.2-5.2 3.2-1.6 6.2-3.2 9.4-4.8s6.4-3 9.6-4.2c3.2-1.4 6.6-2.6 9.8-3.8 3.4-1.2 6.6-2.2 10-3.4 3.4-1 6.8-2 10.2-2.8 3.4-0.8 6.8-1.6 10.4-2.4 3.4-0.6 7-1.2 10.4-1.8 3.4-0.6 7-1 10.4-1.2 3.6-0.4 7-0.6 10.6-0.8 3.6-0.2 7-0.2 10.6-0.2s7 0 10.6 0.2c3.6 0.2 7 0.4 10.6 0.8 3.6 0.4 7 0.8 10.4 1.2 3.4 0.6 7 1.2 10.4 1.8 3.4 0.6 6.8 1.4 10.4 2.4 3.4 0.8 6.8 1.8 10.2 2.8 3.4 1 6.8 2.2 10 3.4 3.4 1.2 6.6 2.4 9.8 3.8l9.6 4.2c3.2 1.4 6.4 3 9.4 4.8 3.2 1.6 6.2 3.4 9.2 5.2 3 1.8 6 3.6 9 5.6 3 2 5.8 4 8.6 6s5.6 4.2 8.4 6.4c2.8 2.2 5.4 4.6 8 6.8s5.2 4.8 7.6 7.2c2.4 2.4 5 5 7.2 7.6 2.4 2.6 4.6 5.2 6.8 8s4.4 5.4 6.4 8.4c2 2.8 4.2 5.8 6 8.6 2 3 3.8 6 5.6 9 1.8 3 3.6 6 5.2 9.2 1.6 3.2 3.2 6.2 4.8 9.4 1.6 3.2 3 6.4 4.2 9.6 1.4 3.2 2.6 6.6 3.8 9.8 1.2 3.4 2.2 6.6 3.4 10 1 3.4 2 6.8 2.8 10.2 0.8 3.4 1.6 6.8 2.4 10.4 0.6 3.4 1.2 7 1.8 10.4 0.6 3.4 1 7 1.2 10.4 0.4 3.6 0.6 7 0.8 10.6 0.2 3.6 0.2 7 0.2 10.6 0 3.6 0 7-0.2 10.6-0.2 3.6-0.4 7-0.8 10.6-0.4 3.6-0.8 7-1.4 10.4-0.6 3.4-1.2 7-1.8 10.4-0.6 3.4-1.4 6.8-2.4 10.2-0.8 3.4-1.8 6.8-2.8 10.2s-2.2 6.8-3.4 10c-1.2 3.4-2.4 6.6-3.8 9.8l-4.2 9.6c-1.6 3.2-3 6.4-4.8 9.4-1.6 3.2-3.4 6.2-5.2 9.2-1.8 3-3.6 6-5.6 9-2 3-4 5.8-6 8.6s-4.2 5.6-6.4 8.4c-2.2 2.8-4.6 5.4-6.8 8-2.4 2.6-4.8 5.2-7.2 7.6-2.4 2.4-5 5-7.6 7.2-2.6 2.4-5.2 4.6-8 6.8s-5.4 4.4-8.4 6.4c-2.8 2-5.8 4.2-8.6 6-3 2-5.8 3.8-9 5.6-3 1.8-6 3.6-9.2 5.2-3.2 1.6-6.2 3.2-9.4 4.8-3.2 1.6-6.4 3-9.6 4.2-3.2 1.4-6.6 2.6-9.8 3.8-3.4 1.2-6.6 2.2-10 3.4-3.4 1-6.8 2-10.2 2.8l-10.2 2.4c-3.4 0.6-7 1.2-10.4 1.8-3.4 0.6-7 1-10.4 1.4-3.6 0.4-7 0.6-10.6 0.8-3.6 0-7 0.2-10.6 0.2zM124.2 201.8l65.6-65.6 137.2 137.2-65.6 65.6-137.2-137.2z m548.8 548.8l65.6-65.6 137.2 137.2-65.6 65.6-137.2-137.2zM14.8 465.6h194v92.8h-194v-92.8z m776.2 0h194v92.8h-194v-92.8zM124.2 822.2l137.2-137.2 65.6 65.6-137.2 137.2-65.6-65.6z m548.8-548.8l137.2-137.2 65.6 65.6-137.2 137.2-65.6-65.6zM453.6 803h92.8v194h-92.8v-194z m0-776.2h92.8v194h-92.8v-194z" p-id="8055"></path></svg>