<?xml version="1.0" standalone="no"?><!DOCTYPE svg PUBLIC "-//W3C//DTD SVG 1.1//EN" "http://www.w3.org/Graphics/SVG/1.1/DTD/svg11.dtd"><svg t="1692500590005" class="icon" viewBox="0 0 1024 1024" version="1.1" xmlns="http://www.w3.org/2000/svg" p-id="8904" width="24" height="24" xmlns:xlink="http://www.w3.org/1999/xlink"><path d="M512 512a170.666667 170.666667 0 1 0-170.666667-170.666667 170.666667 170.666667 0 0 0 170.666667 170.666667z m0-256a85.333333 85.333333 0 1 1-85.333333 85.333333 85.333333 85.333333 0 0 1 85.333333-85.333333z m336.64 535.466667L768 625.493333A128 128 0 0 0 651.093333 554.666667H372.906667a128 128 0 0 0-114.773334 70.826666l-82.773333 165.973334A42.666667 42.666667 0 0 0 213.333333 853.333333h597.333334a42.666667 42.666667 0 0 0 37.973333-61.866666zM282.453333 768l52.053334-104.533333a42.666667 42.666667 0 0 1 38.4-23.466667h278.186666a42.666667 42.666667 0 0 1 38.4 23.466667L741.546667 768z" p-id="8905"></path></svg>