<?xml version="1.0" standalone="no"?><!DOCTYPE svg PUBLIC "-//W3C//DTD SVG 1.1//EN" "http://www.w3.org/Graphics/SVG/1.1/DTD/svg11.dtd"><svg t="1697081380988" class="icon" viewBox="0 0 1024 1024" version="1.1" xmlns="http://www.w3.org/2000/svg" p-id="2711" xmlns:xlink="http://www.w3.org/1999/xlink" width="18" height="18"><path d="M826.9 519.29c11.72 11.72 11.72 30.71 0 42.43-5.86 5.86-13.54 8.79-21.21 8.79s-15.36-2.93-21.21-8.79L541.22 318.46v567.15c0 16.57-13.43 30-30 30s-30-13.43-30-30V320.03L239.54 561.71c-11.71 11.72-30.71 11.72-42.43 0-11.72-11.72-11.72-30.71 0-42.43l293.68-293.67c11.72-11.72 30.71-11.72 42.43 0L826.9 519.29z m56.3-410.9H140.8c-16.57 0-30 13.43-30 30s13.43 30 30 30h742.4c16.57 0 30-13.43 30-30s-13.43-30-30-30z" p-id="2712" fill="#ff69b4"></path></svg>