<?xml version="1.0" encoding="UTF-8"?>
<svg xmlns="http://www.w3.org/2000/svg" viewBox="0 0 320.6 38.51">
  <g id="a" data-name="Calque 1"/>
  <g id="b" data-name="Calque 2">
    <g id="c" data-name="Calque 1">
      <g>
        <g>
          <path d="M19.62,13.48c1.02-.09,1.69-.46,2.24-.75,.37-.2,.69-.37,1-.39,.18-.59,.28-1.2,.28-1.83,0-2.08-1.01-4-2.73-5.16-.8-.54-2.63-1.25-5.04-.85-1.77,.29-3.61,1.63-4.33,2.24-.43,.36-5.58,5.24-7.73,4.27-1.45-.66,1.14-3.05-.05-5.24-.03-.06-.12-.07-.16-.01-.61,.82-1.2,1.8-2,1.36-.36-.2-.68-.82-.93-1.22-.05-.08-.18-.04-.17,.05,.09,2.75,1.42,4.77,2.49,6.05,1.85,2.22,5.1,4.8,10.34,5.32,2.27,.23,7.65-.49,9.81-4.36-.15,.06-.32,.15-.52,.26-.56,.3-1.32,.71-2.45,.81-.07,0-.15,.01-.22,.01-1.02,0-1.98-.62-2.44-.98-.03,0-.07,.01-.11,.01-.25,0-.46-.21-.46-.46s.21-.46,.46-.46,.46,.21,.46,.46v.02c.44,.34,1.36,.94,2.26,.85Zm-6.86,2.03c-.95,.25-1.56,.36-1.96,.36-.44,0-.63-.13-.71-.31-.23-.5,.6-1.21,1.34-1.73,.12-.09,.29-.06,.38,.07,.09,.12,.06,.29-.07,.38-.52,.37-1.02,.83-1.13,1.04,.14,.03,.61,.05,2.01-.32,.15-.04,.3,.05,.33,.19,.04,.15-.05,.3-.19,.33Zm6.32-6.65c.54,0,.98,.44,1.01,1-.11-.22-.34-.37-.6-.37-.38,0-.68,.31-.68,.68s.31,.68,.68,.68c.04,0,.09,0,.13-.01-.16,.1-.34,.16-.53,.16-.56,0-1.02-.48-1.02-1.07,0-.59,.46-1.07,1.02-1.07ZM15.56,1.88c-.15,.26-.05,.6,.21,.74,.26,.15,.82-.17,1.16,.3,.18,.24-.37-1.11-.63-1.26s-.6-.05-.74,.21Zm2.78,.06c-.68,.4-.81,2.05-.63,1.8,.34-.47,.89-.7,1.16-.85s.36-.48,.21-.74c-.15-.26-.48-.37-.74-.21Zm-.69-1.82c-.35,.4-.11,1.44-.05,1.25,.12-.37,.42-.64,.56-.79,.14-.15,.13-.38,0-.51-.14-.13-.37-.11-.5,.04Z" style="fill: #e12229;"/>
          <g>
            <path d="M1.21,20.59h3.41v.41H1.7v2.75h2.69v.41H1.7v3.34h-.49v-6.91Z" style="fill: #808184;"/>
            <path d="M6.44,20.59v6.91h-.49v-6.91h.49Z" style="fill: #808184;"/>
            <path d="M8.11,20.7c.53-.09,1.12-.15,1.77-.15,1.26,0,2.21,.34,2.79,.94,.55,.57,.86,1.35,.86,2.4s-.28,1.93-.9,2.61c-.6,.67-1.65,1.06-2.98,1.06-.53,0-1.04-.01-1.54-.06v-6.8Zm.49,6.4c.28,.04,.68,.05,1.12,.05,2.21,0,3.31-1.24,3.31-3.24,.02-1.75-.95-2.95-3.18-2.95-.53,0-.95,.05-1.25,.11v6.03Z" style="fill: #808184;"/>
            <path d="M14.74,20.59h.49v6.5h3.08v.41h-3.57v-6.91Z" style="fill: #808184;"/>
            <path d="M22.59,24.07h-2.76v3.02h3.09v.41h-3.58v-6.91h3.41v.41h-2.92v2.66h2.76v.41Z" style="fill: #808184;"/>
          </g>
        </g>
        <g>
          <path d="M39.18,4.66h5.87v1.26h-4.38v4.05h4.06v1.24h-4.06v5.41h-1.49V4.66Z"/>
          <path d="M49.67,16.8c-2.09,0-3.73-1.6-3.73-4.42,0-2.96,1.74-4.53,3.85-4.53s3.73,1.67,3.73,4.42c0,3.23-2.01,4.52-3.83,4.52h-.02Zm.07-1.14c1.4,0,2.25-1.58,2.25-3.35,0-1.42-.59-3.32-2.25-3.32s-2.27,1.81-2.27,3.35c0,1.74,.83,3.32,2.25,3.32h.02Z"/>
          <path d="M55.35,10.57c0-.92-.04-1.79-.07-2.54h1.31l.07,1.6h.05c.35-1.06,1.24-1.77,2.2-1.77,.16,0,.27,.02,.39,.04v1.46c-.12-.04-.27-.04-.44-.04-1.03,0-1.77,.82-1.97,1.93-.04,.21-.05,.48-.05,.75v4.63h-1.49v-6.05Z"/>
          <path d="M60.72,10.32c0-.92-.04-1.58-.07-2.29h1.31l.07,1.3h.04c.44-.78,1.21-1.47,2.48-1.47,1.05,0,1.88,.62,2.24,1.6h.04c.25-.46,.59-.83,.92-1.08,.46-.34,.98-.51,1.67-.51,1.15,0,2.61,.78,2.61,3.51v5.25h-1.47v-5c0-1.51-.48-2.52-1.67-2.52-.8,0-1.42,.6-1.67,1.37-.07,.23-.11,.5-.11,.78v5.38h-1.47v-5.29c0-1.24-.48-2.24-1.6-2.24-.85,0-1.53,.69-1.74,1.51-.07,.23-.11,.5-.11,.76v5.25h-1.47v-6.3Z"/>
          <path d="M79.97,14.6c0,.71,.02,1.44,.12,2.02h-1.35l-.12-1.03h-.05c-.44,.66-1.26,1.21-2.36,1.21-1.54,0-2.43-1.15-2.43-2.47,0-2.09,1.79-3.18,4.7-3.16v-.21c0-.83-.23-1.99-1.77-1.97-.73,0-1.46,.21-1.99,.59l-.34-1.03c.6-.39,1.56-.69,2.57-.69,2.34,0,3.02,1.6,3.02,3.39v3.35Zm-1.46-2.38c-1.4-.02-3.25,.23-3.25,1.95,0,1.05,.64,1.49,1.33,1.49,.98,0,1.63-.62,1.85-1.38,.05-.16,.07-.34,.07-.5v-1.56Z"/>
          <path d="M84.01,5.99v2.04h2.06v1.14h-2.06v4.77c0,1.08,.34,1.6,1.1,1.6,.35,0,.59-.04,.8-.09l.05,1.14c-.28,.11-.71,.2-1.28,.2-.66,0-1.22-.21-1.58-.62-.39-.44-.57-1.15-.57-2.22v-4.77h-1.24v-1.14h1.24v-1.54l1.47-.5Z"/>
          <path d="M88.4,6.61c-.53,0-.9-.41-.9-.94s.39-.96,.92-.96,.92,.41,.92,.96-.35,.94-.92,.94h-.02Zm-.71,10.01V8.03h1.49v8.59h-1.49Z"/>
          <path d="M94.73,16.8c-2.09,0-3.73-1.6-3.73-4.42,0-2.96,1.74-4.53,3.85-4.53s3.73,1.67,3.73,4.42c0,3.23-2.01,4.52-3.83,4.52h-.02Zm.07-1.14c1.4,0,2.25-1.58,2.25-3.35,0-1.42-.59-3.32-2.25-3.32s-2.27,1.81-2.27,3.35c0,1.74,.83,3.32,2.25,3.32h.02Z"/>
          <path d="M100.42,10.32c0-.92-.04-1.58-.07-2.29h1.31l.09,1.3h.04c.41-.76,1.31-1.47,2.57-1.47,1.17,0,2.73,.76,2.73,3.44v5.32h-1.49v-5.13c0-1.28-.43-2.4-1.74-2.4-.89,0-1.61,.66-1.86,1.54-.05,.2-.09,.46-.09,.73v5.25h-1.49v-6.3Z"/>
          <path d="M114.49,4.66v11.96h-1.49V4.66h1.49Z"/>
          <path d="M117.1,10.32c0-.92-.04-1.58-.07-2.29h1.31l.09,1.3h.04c.41-.76,1.31-1.47,2.57-1.47,1.17,0,2.73,.76,2.73,3.44v5.32h-1.49v-5.13c0-1.28-.43-2.4-1.74-2.4-.89,0-1.61,.66-1.86,1.54-.05,.2-.09,.46-.09,.73v5.25h-1.49v-6.3Z"/>
          <path d="M127.87,5.99v2.04h2.06v1.14h-2.06v4.77c0,1.08,.34,1.6,1.1,1.6,.35,0,.59-.04,.8-.09l.05,1.14c-.28,.11-.71,.2-1.28,.2-.66,0-1.22-.21-1.58-.62-.39-.44-.57-1.15-.57-2.22v-4.77h-1.24v-1.14h1.24v-1.54l1.47-.5Z"/>
          <path d="M131.52,10.57c0-.92-.04-1.79-.07-2.54h1.31l.07,1.6h.05c.35-1.06,1.24-1.77,2.2-1.77,.16,0,.27,.02,.39,.04v1.46c-.12-.04-.27-.04-.44-.04-1.03,0-1.77,.82-1.97,1.93-.04,.21-.05,.48-.05,.75v4.63h-1.49v-6.05Z"/>
          <path d="M139.88,16.8c-2.09,0-3.73-1.6-3.73-4.42,0-2.96,1.74-4.53,3.85-4.53s3.73,1.67,3.73,4.42c0,3.23-2.01,4.52-3.83,4.52h-.02Zm.07-1.14c1.4,0,2.25-1.58,2.25-3.35,0-1.42-.59-3.32-2.25-3.32s-2.27,1.81-2.27,3.35c0,1.74,.83,3.32,2.25,3.32h.02Z"/>
          <path d="M152.3,4.11V14.46c0,.71,.04,1.6,.07,2.17h-1.31l-.09-1.37h-.05c-.41,.85-1.33,1.54-2.57,1.54-1.9,0-3.34-1.7-3.34-4.38,0-2.91,1.62-4.56,3.48-4.56,1.12,0,1.92,.51,2.29,1.21h.04V4.11h1.49Zm-1.49,7.35c0-.2-.02-.44-.05-.64-.2-.96-.94-1.76-1.97-1.76-1.47,0-2.27,1.47-2.27,3.3s.75,3.21,2.24,3.21c.85,0,1.69-.57,1.99-1.76,.05-.18,.07-.39,.07-.64v-1.72Z"/>
          <path d="M161.24,14.28c0,.9,.04,1.67,.07,2.34h-1.31l-.09-1.24h-.04c-.35,.6-1.19,1.42-2.54,1.42s-2.7-.87-2.7-3.62v-5.15h1.49v4.9c0,1.54,.43,2.63,1.69,2.63,.98,0,1.6-.75,1.81-1.35,.07-.23,.12-.5,.12-.8v-5.38h1.49v6.25Z"/>
          <path d="M169.17,16.34c-.37,.2-1.15,.44-2.15,.44-2.36,0-3.94-1.69-3.94-4.38s1.65-4.54,4.26-4.54c.78,0,1.51,.2,1.88,.41l-.34,1.15c-.32-.16-.83-.35-1.56-.35-1.79,0-2.72,1.53-2.72,3.28,0,1.99,1.12,3.21,2.7,3.21,.73,0,1.22-.18,1.63-.35l.23,1.14Z"/>
          <path d="M172.86,5.99v2.04h2.06v1.14h-2.06v4.77c0,1.08,.34,1.6,1.1,1.6,.35,0,.59-.04,.8-.09l.05,1.14c-.28,.11-.71,.2-1.28,.2-.66,0-1.22-.21-1.58-.62-.39-.44-.57-1.15-.57-2.22v-4.77h-1.24v-1.14h1.24v-1.54l1.47-.5Z"/>
          <path d="M177.24,6.61c-.53,0-.9-.41-.9-.94s.39-.96,.92-.96,.92,.41,.92,.96-.35,.94-.92,.94h-.02Zm-.71,10.01V8.03h1.49v8.59h-1.49Z"/>
          <path d="M183.57,16.8c-2.09,0-3.73-1.6-3.73-4.42,0-2.96,1.74-4.53,3.85-4.53s3.73,1.67,3.73,4.42c0,3.23-2.01,4.52-3.83,4.52h-.02Zm.07-1.14c1.4,0,2.25-1.58,2.25-3.35,0-1.42-.59-3.32-2.25-3.32s-2.27,1.81-2.27,3.35c0,1.74,.83,3.32,2.25,3.32h.02Z"/>
          <path d="M189.27,10.32c0-.92-.04-1.58-.07-2.29h1.31l.09,1.3h.04c.41-.76,1.31-1.47,2.57-1.47,1.17,0,2.73,.76,2.73,3.44v5.32h-1.49v-5.13c0-1.28-.43-2.4-1.74-2.4-.89,0-1.61,.66-1.86,1.54-.05,.2-.09,.46-.09,.73v5.25h-1.49v-6.3Z"/>
          <path d="M207.36,14.6c0,.71,.02,1.44,.12,2.02h-1.35l-.12-1.03h-.05c-.44,.66-1.26,1.21-2.36,1.21-1.54,0-2.43-1.15-2.43-2.47,0-2.09,1.79-3.18,4.7-3.16v-.21c0-.83-.23-1.99-1.77-1.97-.73,0-1.46,.21-1.99,.59l-.34-1.03c.6-.39,1.56-.69,2.57-.69,2.34,0,3.02,1.6,3.02,3.39v3.35Zm-1.46-2.38c-1.4-.02-3.25,.23-3.25,1.95,0,1.05,.64,1.49,1.33,1.49,.98,0,1.63-.62,1.85-1.38,.05-.16,.07-.34,.07-.5v-1.56Z"/>
          <path d="M216.27,14.28c0,.9,.04,1.67,.07,2.34h-1.31l-.09-1.24h-.04c-.35,.6-1.19,1.42-2.54,1.42s-2.7-.87-2.7-3.62v-5.15h1.49v4.9c0,1.54,.43,2.63,1.69,2.63,.98,0,1.6-.75,1.81-1.35,.07-.23,.12-.5,.12-.8v-5.38h1.49v6.25Z"/>
          <path d="M222.21,4.82c.82-.16,1.79-.25,2.84-.25,1.93,0,3.32,.46,4.24,1.31,1.03,.92,1.67,2.36,1.67,4.45,0,2.2-.62,3.74-1.63,4.77-1.03,1.05-2.66,1.6-4.7,1.6-.94,0-1.74-.05-2.41-.12V4.82Zm1.49,10.61c.34,.05,.8,.05,1.24,.05,2.77,0,4.45-1.61,4.45-5.09,.02-2.89-1.38-4.63-4.24-4.63-.62,0-1.12,.05-1.46,.12V15.43Z"/>
          <path d="M233.76,12.56c.02,2.27,1.28,3.05,2.66,3.05,.96,0,1.6-.18,2.09-.41l.25,1.08c-.51,.25-1.4,.5-2.56,.5-2.47,0-3.9-1.72-3.9-4.33s1.44-4.6,3.71-4.6c2.48,0,3.19,2.27,3.19,3.96,0,.34-.02,.57-.05,.75h-5.39Zm4.01-1.08c.02-1.21-.46-2.52-1.9-2.52s-1.99,1.4-2.09,2.52h3.99Z"/>
          <path d="M241.92,12.56c.02,2.27,1.28,3.05,2.66,3.05,.96,0,1.6-.18,2.09-.41l.25,1.08c-.51,.25-1.4,.5-2.56,.5-2.47,0-3.9-1.72-3.9-4.33s1.44-4.6,3.71-4.6c2.48,0,3.19,2.27,3.19,3.96,0,.34-.02,.57-.05,.75h-5.39Zm4.01-1.08c.02-1.21-.46-2.52-1.9-2.52s-1.99,1.4-2.09,2.52h3.99Z"/>
          <path d="M249.18,10.8c0-1.17-.04-2.02-.07-2.77h1.33l.09,1.35h.04c.59-.99,1.51-1.53,2.68-1.53,1.92,0,3.3,1.7,3.3,4.37,0,3.12-1.72,4.58-3.53,4.58-1.05,0-1.88-.5-2.31-1.24h-.04v4.54h-1.49V10.8Zm1.49,2.43c0,.23,.02,.44,.07,.66,.27,1.12,1.12,1.7,2.01,1.7,1.51,0,2.29-1.42,2.29-3.3,0-1.74-.76-3.21-2.25-3.21-.92,0-1.79,.76-2.02,1.81-.05,.2-.09,.43-.09,.64v1.7Z"/>
          <path d="M261.91,4.66h1.49V15.36h4.58v1.26h-6.07V4.66Z"/>
          <path d="M270.18,12.56c.02,2.27,1.28,3.05,2.66,3.05,.96,0,1.6-.18,2.09-.41l.25,1.08c-.51,.25-1.4,.5-2.56,.5-2.47,0-3.9-1.72-3.9-4.33s1.44-4.6,3.71-4.6c2.48,0,3.19,2.27,3.19,3.96,0,.34-.02,.57-.05,.75h-5.39Zm4.01-1.08c.02-1.21-.46-2.52-1.9-2.52s-1.99,1.4-2.09,2.52h3.99Z"/>
          <path d="M283.03,14.6c0,.71,.02,1.44,.12,2.02h-1.35l-.12-1.03h-.05c-.44,.66-1.26,1.21-2.36,1.21-1.54,0-2.43-1.15-2.43-2.47,0-2.09,1.79-3.18,4.7-3.16v-.21c0-.83-.23-1.99-1.77-1.97-.73,0-1.46,.21-1.99,.59l-.34-1.03c.6-.39,1.56-.69,2.57-.69,2.34,0,3.02,1.6,3.02,3.39v3.35Zm-1.46-2.38c-1.4-.02-3.25,.23-3.25,1.95,0,1.05,.64,1.49,1.33,1.49,.98,0,1.63-.62,1.85-1.38,.05-.16,.07-.34,.07-.5v-1.56Z"/>
          <path d="M285.37,10.57c0-.92-.04-1.79-.07-2.54h1.31l.07,1.6h.05c.35-1.06,1.24-1.77,2.2-1.77,.16,0,.27,.02,.39,.04v1.46c-.12-.04-.27-.04-.44-.04-1.03,0-1.77,.82-1.97,1.93-.04,.21-.05,.48-.05,.75v4.63h-1.49v-6.05Z"/>
          <path d="M290.76,10.32c0-.92-.04-1.58-.07-2.29h1.31l.09,1.3h.04c.41-.76,1.31-1.47,2.57-1.47,1.17,0,2.73,.76,2.73,3.44v5.32h-1.49v-5.13c0-1.28-.43-2.4-1.74-2.4-.89,0-1.61,.66-1.86,1.54-.05,.2-.09,.46-.09,.73v5.25h-1.49v-6.3Z"/>
          <path d="M300.52,6.61c-.53,0-.9-.41-.9-.94s.39-.96,.92-.96,.92,.41,.92,.96-.35,.94-.92,.94h-.02Zm-.71,10.01V8.03h1.49v8.59h-1.49Z"/>
          <path d="M303.69,10.32c0-.92-.04-1.58-.07-2.29h1.31l.09,1.3h.04c.41-.76,1.31-1.47,2.57-1.47,1.17,0,2.73,.76,2.73,3.44v5.32h-1.49v-5.13c0-1.28-.43-2.4-1.74-2.4-.89,0-1.61,.66-1.86,1.54-.05,.2-.09,.46-.09,.73v5.25h-1.49v-6.3Z"/>
          <path d="M319.41,15.42c0,2.08-.37,3.16-1.1,3.87-.75,.71-1.83,.99-2.87,.99-.94,0-1.95-.23-2.57-.62l.37-1.15c.5,.3,1.3,.59,2.24,.59,1.46,0,2.47-.78,2.47-2.88v-.94h-.04c-.41,.76-1.26,1.33-2.4,1.33-1.95,0-3.32-1.79-3.32-4.22,0-2.98,1.76-4.53,3.51-4.53,1.31,0,2.01,.73,2.36,1.37h.04l.07-1.19h1.31c-.04,.6-.07,1.33-.07,2.45v4.93Zm-1.49-4.12c0-.25-.02-.48-.07-.67-.25-.82-.87-1.56-1.92-1.56-1.33,0-2.24,1.28-2.24,3.25,0,1.85,.82,3.12,2.24,3.12,.8,0,1.56-.48,1.88-1.49,.09-.27,.11-.55,.11-.82v-1.83Z"/>
        </g>
        <g>
          <path d="M39.66,21.86h.32v2.14h.01c.21-.42,.58-.64,1.08-.64,.73,0,1.27,.65,1.27,1.72,0,1.22-.69,1.78-1.34,1.78-.5,0-.83-.23-1.05-.64h-.02l-.02,.57h-.29c.01-.2,.03-.53,.03-.75v-4.19Zm.32,3.68c0,.08,0,.16,.03,.23,.14,.56,.54,.83,.96,.83,.69,0,1.05-.66,1.05-1.5,0-.76-.35-1.46-1.04-1.46-.44,0-.85,.36-.97,.86-.02,.08-.04,.18-.04,.28v.76Z"/>
          <path d="M43.02,23.44l.77,2.15c.09,.26,.17,.52,.22,.74h.01c.06-.2,.15-.48,.23-.76l.72-2.14h.34l-.85,2.33c-.36,1.02-.62,1.73-1.06,2.17-.25,.24-.48,.36-.56,.39l-.13-.27c.17-.08,.38-.21,.56-.41,.16-.18,.36-.46,.49-.79,.03-.08,.03-.12,.03-.16,0-.04,0-.08-.03-.14l-1.11-3.11h.34Z"/>
          <path d="M50.15,26.65c-.21,.11-.6,.21-1.09,.21-1.02,0-2-.69-2-2.39,0-1.55,.9-2.46,2.13-2.46,.5,0,.81,.1,.93,.18l-.1,.28c-.2-.1-.48-.18-.83-.18-1.04,0-1.79,.74-1.79,2.16s.69,2.12,1.75,2.12c.36,0,.69-.07,.9-.19l.1,.27Z"/>
          <path d="M50.88,26.8v-4.72h.31l1.58,2.68c.34,.6,.6,1.09,.82,1.58h.01c-.05-.72-.06-1.24-.06-2v-2.27h.31v4.72h-.31l-1.57-2.69c-.31-.54-.59-1.04-.82-1.58h-.02c.04,.63,.05,1.14,.05,2v2.27h-.31Z"/>
          <path d="M54.92,22.14c.26-.06,.61-.1,.9-.1,.56,0,.92,.13,1.17,.37,.2,.2,.32,.52,.32,.86,0,.64-.36,1.04-.88,1.23h0c.37,.13,.6,.48,.71,1.06,.15,.73,.24,1.06,.32,1.23h-.34c-.07-.14-.17-.56-.29-1.16-.13-.68-.41-.98-1.01-1h-.6v2.16h-.32v-4.66Zm.32,2.23h.6c.69,0,1.14-.41,1.14-1.04,0-.7-.45-1.02-1.17-1.02-.27,0-.46,.03-.57,.06v2.01Z"/>
          <path d="M58.03,26.31c.23,.15,.57,.27,.91,.27,.65,0,1.06-.39,1.06-.97,0-.52-.27-.83-.86-1.11-.59-.25-1.11-.64-1.11-1.3s.55-1.18,1.29-1.18c.4,0,.7,.11,.84,.21l-.13,.27c-.12-.08-.39-.2-.74-.2-.69,0-.94,.47-.94,.84,0,.54,.3,.79,.9,1.07,.7,.34,1.07,.71,1.07,1.37,0,.71-.5,1.28-1.4,1.28-.37,0-.8-.13-1.01-.29l.12-.27Z"/>
          <path d="M62.03,27.08l1.99-5.07h.32l-2,5.07h-.31Z"/>
          <path d="M69.9,24.55c-.04-.71-.09-1.55-.08-2.07h-.03c-.15,.52-.32,1.07-.57,1.77l-.9,2.56h-.2l-.85-2.48c-.25-.74-.43-1.31-.56-1.84h-.02c0,.56-.04,1.35-.09,2.14l-.13,2.19h-.32l.32-4.72h.37l.91,2.63c.2,.62,.36,1.07,.48,1.55h.02c.11-.47,.26-.91,.48-1.55l.92-2.64h.39l.3,4.72h-.32l-.13-2.25Z"/>
          <path d="M71.61,22.08v4.72h-.32v-4.72h.32Z"/>
          <path d="M73.2,25.15l-.52,1.65h-.33l1.53-4.72h.32l1.53,4.72h-.34l-.53-1.65h-1.66Zm1.57-.27l-.5-1.51c-.1-.34-.17-.6-.23-.9h-.02c-.06,.31-.14,.58-.23,.9l-.5,1.51h1.48Z"/>
          <path d="M76.75,22.08v4.72h-.32v-4.72h.32Z"/>
          <path d="M78.68,27.08l1.99-5.07h.32l-2,5.07h-.31Z"/>
          <path d="M83.25,22.08v2.96c0,1.13,.5,1.55,1.11,1.55,.69,0,1.16-.46,1.16-1.55v-2.96h.32v2.93c0,1.39-.7,1.86-1.5,1.86-.74,0-1.42-.43-1.42-1.79v-3h.32Z"/>
          <path d="M89.9,26.62c-.22,.09-.66,.22-1.19,.22s-1.05-.14-1.48-.57c-.36-.37-.62-1-.62-1.8,0-1.5,.88-2.45,2.22-2.45,.43,0,.78,.1,.95,.18l-.1,.27c-.2-.1-.48-.17-.87-.17-1.09,0-1.86,.74-1.86,2.12s.74,2.14,1.81,2.14c.42,0,.68-.06,.82-.13v-1.71h-.99v-.27h1.31v2.16Z"/>
          <path d="M91.35,25.15l-.52,1.65h-.33l1.53-4.72h.32l1.53,4.72h-.34l-.53-1.65h-1.66Zm1.57-.27l-.5-1.51c-.1-.34-.17-.6-.23-.9h-.02c-.06,.31-.14,.58-.23,.9l-.5,1.51h1.48Z"/>
        </g>
        <line x1=".96" y1="36.11" x2="242.15" y2="36.11" style="fill: none; stroke: #e6e7e7; stroke-miterlimit: 10; stroke-width: .25px;"/>
        <line x1="279.14" y1="36.11" x2="318.76" y2="36.11" style="fill: none; stroke: #e6e7e7; stroke-miterlimit: 10; stroke-width: .25px;"/>
        <g>
          <g>
            <circle cx="316.02" cy="24.42" r="2.45" style="fill: #fff;"/>
            <path d="M316.06,21.72c.75,0,1.39,.26,1.92,.78,.52,.52,.78,1.16,.78,1.91s-.26,1.39-.77,1.9c-.54,.53-1.19,.8-1.93,.8s-1.36-.26-1.9-.79c-.53-.53-.79-1.16-.79-1.9s.26-1.37,.79-1.91c.52-.52,1.16-.78,1.9-.78Zm0,.49c-.61,0-1.13,.22-1.56,.65-.44,.45-.66,.97-.66,1.56s.22,1.12,.65,1.55c.44,.44,.96,.65,1.56,.65s1.12-.22,1.57-.66c.42-.41,.64-.93,.64-1.55s-.22-1.14-.65-1.56c-.43-.43-.95-.65-1.56-.65Zm-1.2,1.83c.05-.33,.18-.59,.4-.77,.22-.18,.48-.27,.78-.27,.42,0,.76,.14,1.01,.41,.25,.27,.38,.62,.38,1.05s-.13,.76-.39,1.03c-.26,.27-.6,.41-1.01,.41-.3,0-.57-.09-.79-.27-.22-.18-.35-.44-.4-.78h.68c.02,.33,.21,.49,.59,.49,.19,0,.34-.08,.46-.25,.12-.16,.17-.38,.17-.65s-.05-.5-.16-.65c-.11-.15-.26-.22-.46-.22-.36,0-.56,.16-.61,.48h.2l-.53,.53-.53-.53h.21Z"/>
          </g>
          <g>
            <path d="M299.43,24.41c0,.42-.11,.83-.33,1.2-.21,.37-.52,.67-.89,.88-.38,.21-.8,.33-1.24,.33s-.86-.11-1.24-.33c-.37-.21-.69-.52-.9-.88-.22-.37-.32-.78-.32-1.2s.1-.84,.32-1.21c.22-.37,.53-.67,.9-.88,.37-.21,.8-.33,1.24-.33s.85,.11,1.24,.33c.37,.21,.69,.52,.89,.88,.22,.37,.33,.78,.33,1.21h0Z" style="fill: #fff; fill-rule: evenodd;"/>
            <path d="M296.94,21.73c.77,0,1.41,.26,1.95,.78,.26,.25,.46,.54,.59,.86,.12,.33,.2,.67,.2,1.04s-.06,.7-.2,1.03c-.14,.32-.33,.6-.58,.84-.27,.26-.57,.46-.91,.6-.33,.13-.69,.2-1.05,.2s-.71-.07-1.04-.2c-.33-.13-.62-.34-.89-.59-.26-.25-.46-.55-.59-.86-.14-.33-.21-.66-.21-1.02s.07-.7,.21-1.03,.34-.62,.6-.87c.52-.52,1.16-.78,1.92-.78h0Zm.01,.49c-.62,0-1.15,.21-1.58,.64-.22,.21-.38,.45-.5,.71-.11,.27-.17,.55-.17,.84s.05,.56,.17,.82,.28,.51,.5,.71c.22,.21,.46,.37,.73,.48s.55,.16,.85,.16,.58-.05,.85-.16c.28-.11,.52-.27,.75-.48,.43-.42,.63-.93,.63-1.53,0-.3-.05-.58-.17-.84-.1-.26-.27-.5-.48-.71-.45-.43-.97-.64-1.59-.64h0Zm-.03,1.75l-.37,.18c-.03-.08-.08-.13-.14-.16-.06-.03-.11-.05-.17-.05-.24,0-.36,.15-.36,.48,0,.14,.03,.25,.09,.34,.06,.09,.16,.13,.27,.13,.17,0,.27-.07,.34-.22l.33,.16c-.07,.13-.17,.23-.3,.3-.12,.08-.26,.11-.42,.11-.25,0-.45-.07-.59-.21-.15-.15-.23-.36-.23-.61s.08-.46,.23-.61c.16-.15,.34-.22,.58-.22,.33,0,.58,.12,.73,.39h0Zm1.58,0l-.36,.18c-.04-.08-.09-.13-.15-.16-.06-.03-.11-.05-.17-.05-.24,0-.36,.15-.36,.48,0,.14,.03,.25,.09,.34,.06,.09,.16,.13,.27,.13,.16,0,.27-.07,.34-.22l.34,.16c-.08,.13-.18,.23-.31,.3-.12,.08-.26,.11-.42,.11-.24,0-.44-.07-.59-.21-.15-.15-.22-.36-.22-.61s.07-.46,.23-.61c.15-.15,.34-.22,.57-.22,.34,0,.58,.12,.73,.39h0Z" style="fill-rule: evenodd;"/>
          </g>
          <g>
            <path d="M305.75,24.45c0,.42-.1,.82-.32,1.18-.21,.37-.52,.66-.88,.87-.37,.2-.79,.32-1.22,.32s-.84-.11-1.21-.32c-.37-.21-.68-.51-.89-.87-.21-.36-.32-.76-.32-1.18s.11-.82,.32-1.18c.22-.37,.52-.66,.89-.87,.36-.2,.78-.32,1.21-.32s.84,.11,1.22,.32c.36,.21,.68,.51,.88,.87,.22,.36,.32,.76,.32,1.18h0Z" style="fill: #fff; fill-rule: evenodd;"/>
            <path d="M303.32,21.73c.77,0,1.41,.26,1.94,.77,.53,.52,.8,1.16,.8,1.91s-.26,1.37-.79,1.87c-.55,.54-1.21,.8-1.95,.8s-1.39-.26-1.93-.79c-.54-.52-.81-1.15-.81-1.88s.27-1.37,.81-1.91c.53-.51,1.17-.77,1.93-.77h0Zm0,.49c-.62,0-1.14,.21-1.58,.64-.45,.45-.67,.97-.67,1.56s.22,1.1,.67,1.53c.45,.44,.97,.65,1.58,.65s1.14-.22,1.6-.66c.44-.4,.64-.91,.64-1.53s-.22-1.12-.65-1.55c-.44-.43-.97-.64-1.59-.64h0Zm.74,1.52v1.1h-.31v1.3h-.85v-1.3h-.31v-1.1c0-.05,.02-.09,.05-.12s.07-.05,.12-.05h1.12c.05,0,.09,.02,.12,.05s.05,.07,.05,.12h0Zm-1.12-.69c0-.24,.12-.38,.38-.38s.38,.13,.38,.38-.14,.38-.38,.38-.38-.12-.38-.38h0Z" style="fill-rule: evenodd;"/>
          </g>
          <g>
            <path d="M312.12,24.4c0,.42-.11,.83-.33,1.21-.22,.37-.53,.67-.91,.88-.37,.21-.8,.33-1.24,.33s-.86-.11-1.24-.33-.69-.52-.9-.88c-.22-.38-.33-.79-.33-1.21s.11-.84,.33-1.21c.22-.37,.53-.67,.9-.88s.8-.33,1.24-.33,.86,.11,1.24,.33c.38,.21,.7,.52,.91,.88,.22,.37,.33,.78,.33,1.21h0Z" style="fill: #fff; fill-rule: evenodd;"/>
            <path d="M311.63,22.51c-.53-.51-1.17-.77-1.94-.77s-1.4,.26-1.93,.77c-.54,.54-.81,1.17-.81,1.91s.27,1.35,.81,1.88,1.18,.79,1.93,.79,1.4-.26,1.96-.79c.52-.51,.78-1.14,.78-1.88s-.27-1.39-.8-1.91h0Zm-.34,3.44c-.45,.44-.99,.66-1.6,.66s-1.14-.22-1.58-.65c-.45-.44-.67-.95-.67-1.55,0-.24,.04-.49,.11-.71l.73,.32h-.05v.33h.26s-.01,.08-.01,.13v.07h-.25v.33h.3c.04,.23,.14,.43,.26,.58,.25,.34,.67,.51,1.11,.51,.3,0,.56-.08,.72-.16l-.1-.5c-.1,.04-.31,.11-.53,.11s-.44-.07-.59-.22c-.06-.08-.11-.18-.15-.32h1l1.41,.61c-.09,.17-.22,.33-.37,.47h0Zm-1.78-1.4h0Zm.85-.2h.04v-.33h-.78l-.31-.13c.02-.06,.05-.11,.09-.15,.15-.17,.34-.24,.56-.24s.39,.06,.51,.1l.14-.51c-.17-.07-.42-.13-.7-.13-.43,0-.8,.17-1.06,.46-.05,.06-.1,.14-.16,.21l-.89-.39c.08-.13,.19-.25,.3-.37,.44-.43,.96-.65,1.58-.65s1.15,.22,1.59,.65c.44,.42,.65,.94,.65,1.56,0,.19-.02,.39-.06,.57l-1.51-.65h0Z" style="fill-rule: evenodd;"/>
          </g>
        </g>
        <g>
          <path d="M244.47,33.74h.23v1.5h0c.07-.12,.17-.23,.29-.31,.12-.08,.26-.12,.44-.12,.23,0,.74,.12,.74,.93v1.52h-.23v-1.48c0-.41-.15-.78-.58-.78-.31,0-.56,.22-.65,.53-.02,.06-.02,.13-.02,.22v1.51h-.23v-3.53Z" style="fill: #9c9b9b;"/>
          <path d="M247.2,34.34v.53h.62v.19h-.62v1.58c0,.32,.1,.48,.33,.48,.11,0,.18,0,.23-.03l.03,.18c-.07,.03-.17,.05-.3,.05-.17,0-.3-.05-.39-.16-.1-.12-.14-.31-.14-.57v-1.53h-.38v-.19h.38v-.43l.23-.09Z" style="fill: #9c9b9b;"/>
          <path d="M248.61,34.34v.53h.62v.19h-.62v1.58c0,.32,.1,.48,.33,.48,.11,0,.18,0,.23-.03l.03,.18c-.07,.03-.17,.05-.3,.05-.17,0-.3-.05-.39-.16-.1-.12-.14-.31-.14-.57v-1.53h-.38v-.19h.38v-.43l.23-.09Z" style="fill: #9c9b9b;"/>
          <path d="M249.71,35.62c0-.34-.01-.56-.02-.76h.22v.42h.02c.17-.31,.43-.47,.78-.47,.54,0,.92,.47,.92,1.22,0,.88-.47,1.28-.98,1.28-.31,0-.57-.15-.7-.4h-.01v1.33h-.23v-2.62Zm.23,.72c0,.06,0,.13,.02,.19,.1,.4,.39,.59,.68,.59,.5,0,.76-.47,.76-1.08,0-.54-.25-1.04-.74-1.04-.32,0-.61,.26-.69,.62,0,.07-.02,.14-.02,.2v.51Z" style="fill: #9c9b9b;"/>
          <path d="M252.1,36.95c.11,.08,.29,.16,.49,.16,.34,0,.52-.2,.52-.45s-.13-.4-.45-.55c-.35-.17-.58-.37-.58-.67,0-.35,.28-.64,.7-.64,.21,0,.38,.07,.49,.15l-.1,.19c-.08-.06-.22-.13-.43-.13-.29,0-.44,.19-.44,.4,0,.23,.14,.34,.44,.49,.34,.16,.59,.35,.59,.72,0,.43-.31,.69-.76,.69-.21,0-.42-.06-.56-.16l.09-.2Z" style="fill: #9c9b9b;"/>
          <path d="M253.98,35.43c-.11,0-.19-.09-.19-.21s.08-.22,.2-.22,.2,.1,.2,.22-.08,.21-.2,.21h0Zm0,1.89c-.11,0-.19-.09-.19-.21s.08-.22,.2-.22,.2,.1,.2,.22-.08,.21-.2,.21h0Z" style="fill: #9c9b9b;"/>
          <path d="M254.39,37.46l1.42-3.62h.23l-1.43,3.62h-.23Z" style="fill: #9c9b9b;"/>
          <path d="M256.04,37.46l1.42-3.62h.23l-1.43,3.62h-.23Z" style="fill: #9c9b9b;"/>
          <path d="M258.09,37.26v-2.21h-.33v-.19h.33v-.16c0-.59,.27-1.02,.87-1.02,.2,0,.41,.08,.51,.16l-.1,.18c-.09-.06-.26-.14-.45-.14-.48,0-.6,.37-.6,.84v.14h1.25v2.4h-.23v-2.21h-1.02v2.21h-.23Z" style="fill: #9c9b9b;"/>
          <path d="M262.04,33.74v2.99c0,.16,.01,.4,.02,.54h-.21l-.02-.42h-.01c-.11,.24-.36,.47-.75,.47-.52,0-.93-.46-.93-1.22,0-.82,.45-1.29,.97-1.29,.34,0,.58,.17,.69,.39h.01v-1.47h.23Zm-.23,2.06c0-.06,0-.14-.02-.21-.06-.32-.32-.59-.66-.59-.48,0-.75,.48-.75,1.07,0,.54,.23,1.04,.73,1.04,.28,0,.57-.18,.68-.6,.01-.06,.02-.12,.02-.19v-.53Z" style="fill: #9c9b9b;"/>
          <path d="M262.77,33.74h.23v3.53h-.23v-3.53Z" style="fill: #9c9b9b;"/>
          <path d="M263.82,36.02c0,.83,.4,1.09,.82,1.09,.3,0,.46-.06,.58-.12l.06,.18c-.1,.06-.33,.15-.67,.15-.65,0-1.02-.5-1.02-1.21,0-.79,.41-1.29,.97-1.29,.7,0,.84,.69,.84,1.06,0,.06,0,.1,0,.15h-1.57Zm1.34-.19c.01-.41-.17-.83-.63-.83s-.66,.45-.7,.83h1.33Z" style="fill: #9c9b9b;"/>
          <path d="M265.99,37.31c-.11,0-.19-.09-.19-.21s.08-.22,.2-.22,.2,.1,.2,.22-.08,.21-.2,.21h0Z" style="fill: #9c9b9b;"/>
          <path d="M268.25,37.17c-.1,.06-.32,.14-.61,.14-.63,0-1.05-.48-1.05-1.23s.45-1.27,1.12-1.27c.25,0,.46,.07,.54,.13l-.08,.2c-.1-.06-.26-.12-.49-.12-.58,0-.86,.51-.86,1.06,0,.63,.35,1.03,.85,1.03,.23,0,.39-.06,.51-.12l.06,.18Z" style="fill: #9c9b9b;"/>
          <path d="M268.77,35.43c0-.25-.01-.39-.02-.57h.22l.02,.4h0c.12-.25,.39-.45,.74-.45,.24,0,.75,.13,.75,.95v1.51h-.23v-1.47c0-.41-.14-.79-.59-.79-.3,0-.56,.22-.64,.54-.01,.06-.02,.14-.02,.22v1.5h-.23v-1.83Z" style="fill: #9c9b9b;"/>
          <path d="M271.2,35.53c0-.22,0-.46-.02-.67h.21v.46h.02c.1-.28,.33-.51,.64-.51,.03,0,.06,0,.08,0v.23s-.06,0-.09,0c-.33,0-.55,.29-.6,.65-.01,.07-.02,.15-.02,.22v1.35h-.23v-1.73Z" style="fill: #9c9b9b;"/>
          <path d="M272.47,36.95c.11,.08,.29,.16,.49,.16,.34,0,.52-.2,.52-.45s-.13-.4-.45-.55c-.36-.17-.58-.37-.58-.67,0-.35,.27-.64,.7-.64,.21,0,.38,.07,.49,.15l-.1,.19c-.08-.06-.22-.13-.43-.13-.29,0-.44,.19-.44,.4,0,.23,.14,.34,.44,.49,.34,.16,.59,.35,.59,.72,0,.43-.32,.69-.76,.69-.21,0-.42-.06-.56-.16l.09-.2Z" style="fill: #9c9b9b;"/>
          <path d="M274.29,37.31c-.11,0-.19-.09-.19-.21s.08-.22,.2-.22,.2,.1,.2,.22-.08,.21-.2,.21h0Z" style="fill: #9c9b9b;"/>
          <path d="M275.1,37.26v-2.21h-.33v-.19h.33v-.15c0-.34,.06-.63,.24-.83,.15-.15,.34-.21,.5-.21,.14,0,.26,.04,.33,.08l-.07,.19c-.06-.03-.15-.06-.28-.06-.41,0-.49,.4-.49,.83v.15h.59v.19h-.59v2.21h-.23Z" style="fill: #9c9b9b;"/>
          <path d="M276.28,35.53c0-.22-.01-.46-.02-.67h.22v.46h.02c.1-.28,.33-.51,.64-.51,.03,0,.06,0,.08,0v.23s-.06,0-.09,0c-.33,0-.55,.29-.6,.65-.01,.07-.02,.15-.02,.22v1.35h-.23v-1.73Z" style="fill: #9c9b9b;"/>
        </g>
      </g>
    </g>
  </g>
</svg>