<svg xmlns="http://www.w3.org/2000/svg" xmlns:xlink="http://www.w3.org/1999/xlink" viewBox="0 0 65.812 58"><defs><path id="a" fill="#e9e9ff" d="m-186.329 59.726 3.185 1.16v3.742l-3.185-1.159z" color="#000" overflow="visible" style="isolation:auto;mix-blend-mode:normal;solid-color:#000;solid-opacity:1"/><path id="b" fill="#353564" d="M-189.56 60.903v3.743l3.231-1.177v-3.743z" color="#000" overflow="visible" style="isolation:auto;mix-blend-mode:normal;solid-color:#000;solid-opacity:1"/><path id="c" fill="#afafde" d="m-189.56 64.646 3.184 1.159 3.232-1.177-3.185-1.159z" color="#000" overflow="visible" style="isolation:auto;mix-blend-mode:normal;solid-color:#000;solid-opacity:1"/></defs><g fill="#a29d86" stroke="#ccc" stroke-linejoin="bevel" stroke-width=".073"><use xlink:href="#a" color="#000" overflow="visible" style="isolation:auto;mix-blend-mode:normal;solid-color:#000;solid-opacity:1" transform="translate(564.377 -156.012) scale(2.92733)"/><use xlink:href="#b" color="#000" overflow="visible" style="isolation:auto;mix-blend-mode:normal;solid-color:#000;solid-opacity:1" transform="translate(564.377 -156.012) scale(2.92733)"/><use xlink:href="#c" color="#000" overflow="visible" style="isolation:auto;mix-blend-mode:normal;solid-color:#000;solid-opacity:1" transform="translate(564.377 -156.012) scale(2.92733)"/><path fill="#f7f7f4" stroke-width=".214" d="m9.472 22.271 9.32 3.393 9.462-3.446-9.323-3.392z"/><path fill="#fff" stroke-width=".214" d="M18.793 25.664v10.957l9.461-3.446V22.218z"/><path fill="#efeeea" stroke-width=".214" d="m9.472 22.271 9.32 3.393v10.957L9.47 33.225z"/></g><g fill="#a29d86" stroke="#ccc" stroke-linejoin="bevel" stroke-width=".073"><use xlink:href="#a" color="#000" overflow="visible" style="isolation:auto;mix-blend-mode:normal;solid-color:#000;solid-opacity:1" transform="translate(573.74 -163.673) scale(2.92733)"/><use xlink:href="#b" color="#000" overflow="visible" style="isolation:auto;mix-blend-mode:normal;solid-color:#000;solid-opacity:1" transform="translate(573.74 -163.673) scale(2.92733)"/><use xlink:href="#c" color="#000" overflow="visible" style="isolation:auto;mix-blend-mode:normal;solid-color:#000;solid-opacity:1" transform="translate(573.74 -163.673) scale(2.92733)"/><path fill="#f7f7f4" stroke-width=".214" d="m18.835 14.61 9.32 3.393 9.462-3.446-9.323-3.392z"/><path fill="#fff" stroke-width=".214" d="M28.156 18.003V28.96l9.461-3.446V14.557z"/><path fill="#efeeea" stroke-width=".214" d="m18.835 14.61 9.32 3.393V28.96l-9.323-3.396z"/></g><g fill="#a29d86" stroke="#ccc" stroke-linejoin="bevel" stroke-width=".073"><use xlink:href="#a" color="#000" overflow="visible" style="isolation:auto;mix-blend-mode:normal;solid-color:#000;solid-opacity:1" transform="translate(555.014 -141.542) scale(2.92733)"/><use xlink:href="#b" color="#000" overflow="visible" style="isolation:auto;mix-blend-mode:normal;solid-color:#000;solid-opacity:1" transform="translate(555.014 -141.542) scale(2.92733)"/><use xlink:href="#c" color="#000" overflow="visible" style="isolation:auto;mix-blend-mode:normal;solid-color:#000;solid-opacity:1" transform="translate(555.014 -141.542) scale(2.92733)"/><path fill="#f7f7f4" stroke-width=".214" d="m.11 36.741 9.32 3.393 9.461-3.446-9.323-3.392z"/><path fill="#fff" stroke-width=".214" d="M9.43 40.134v10.957l9.461-3.446V36.688z"/><path fill="#efeeea" stroke-width=".214" d="m.11 36.741 9.32 3.393v10.957L.106 47.695z"/></g><g fill="#a29d86" stroke="#ccc" stroke-linejoin="bevel" stroke-width=".073"><use xlink:href="#a" color="#000" overflow="visible" style="isolation:auto;mix-blend-mode:normal;solid-color:#000;solid-opacity:1" transform="translate(564.377 -138.137) scale(2.92733)"/><use xlink:href="#b" color="#000" overflow="visible" style="isolation:auto;mix-blend-mode:normal;solid-color:#000;solid-opacity:1" transform="translate(564.377 -138.137) scale(2.92733)"/><use xlink:href="#c" color="#000" overflow="visible" style="isolation:auto;mix-blend-mode:normal;solid-color:#000;solid-opacity:1" transform="translate(564.377 -138.137) scale(2.92733)"/><path fill="#f7f7f4" stroke-width=".214" d="m9.472 40.146 9.32 3.393 9.462-3.446-9.323-3.392z"/><path fill="#fff" stroke-width=".214" d="M18.793 43.539v10.957l9.461-3.446V40.093z"/><path fill="#efeeea" stroke-width=".214" d="m9.472 40.146 9.32 3.393v10.957L9.47 51.1z"/></g><g fill="#a29d86" stroke="#ccc" stroke-linejoin="bevel" stroke-width=".073"><use xlink:href="#a" color="#000" overflow="visible" style="isolation:auto;mix-blend-mode:normal;solid-color:#000;solid-opacity:1" transform="translate(564.377 -149.203) scale(2.92733)"/><use xlink:href="#b" color="#000" overflow="visible" style="isolation:auto;mix-blend-mode:normal;solid-color:#000;solid-opacity:1" transform="translate(564.377 -149.203) scale(2.92733)"/><use xlink:href="#c" color="#000" overflow="visible" style="isolation:auto;mix-blend-mode:normal;solid-color:#000;solid-opacity:1" transform="translate(564.377 -149.203) scale(2.92733)"/><path fill="#f7f7f4" stroke-width=".214" d="m9.472 29.08 9.32 3.393 9.462-3.446-9.323-3.392z"/><path fill="#fff" stroke-width=".214" d="M18.793 32.473V43.43l9.461-3.446V29.027z"/><path fill="#efeeea" stroke-width=".214" d="m9.472 29.08 9.32 3.393V43.43L9.47 40.034z"/></g><g fill="#a29d86" stroke="#ccc" stroke-linejoin="bevel" stroke-width=".073"><use xlink:href="#a" color="#000" overflow="visible" style="isolation:auto;mix-blend-mode:normal;solid-color:#000;solid-opacity:1" transform="translate(601.83 -144.947) scale(2.92733)"/><use xlink:href="#b" color="#000" overflow="visible" style="isolation:auto;mix-blend-mode:normal;solid-color:#000;solid-opacity:1" transform="translate(601.83 -144.947) scale(2.92733)"/><use xlink:href="#c" color="#000" overflow="visible" style="isolation:auto;mix-blend-mode:normal;solid-color:#000;solid-opacity:1" transform="translate(601.83 -144.947) scale(2.92733)"/><path fill="#f7f7f4" stroke-width=".214" d="m46.925 33.336 9.32 3.393 9.462-3.446-9.323-3.392z"/><path fill="#fff" stroke-width=".214" d="M56.246 36.729v10.957l9.461-3.446V33.283z"/><path fill="#efeeea" stroke-width=".214" d="m46.925 33.336 9.32 3.393v10.957l-9.323-3.396z"/></g><g transform="translate(-1683.66 -513.275) scale(.65177)"><g fill="#a29d86" stroke="#ccc" stroke-linejoin="bevel" stroke-width=".073"><use xlink:href="#a" color="#000" overflow="visible" style="isolation:auto;mix-blend-mode:normal;solid-color:#000;solid-opacity:1" transform="translate(3492.218 570.342) scale(4.49135)"/><use xlink:href="#b" color="#000" overflow="visible" style="isolation:auto;mix-blend-mode:normal;solid-color:#000;solid-opacity:1" transform="translate(3492.218 570.342) scale(4.49135)"/><use xlink:href="#c" color="#000" overflow="visible" style="isolation:auto;mix-blend-mode:normal;solid-color:#000;solid-opacity:1" transform="translate(3492.218 570.342) scale(4.49135)"/><path fill="#f7f7f4" stroke-width=".328" d="m2640.838 843.879 14.3 5.205 14.516-5.286-14.305-5.206z"/><path fill="#ffd242" stroke-width=".328" d="M2655.138 849.084v16.811l14.516-5.286v-16.811z"/><path fill="#efeeea" stroke-width=".328" d="m2640.838 843.879 14.3 5.205v16.811l-14.305-5.21z"/></g><circle cx="2835.218" cy="1823.899" r="2.967" fill="#fff" transform="skewY(-20) scale(.9397 1)"/></g><g fill="#a29d86" stroke="#ccc" stroke-linejoin="bevel" stroke-width=".073"><use xlink:href="#a" color="#000" overflow="visible" style="isolation:auto;mix-blend-mode:normal;solid-color:#000;solid-opacity:1" transform="translate(583.104 -138.137) scale(2.92733)"/><use xlink:href="#b" color="#000" overflow="visible" style="isolation:auto;mix-blend-mode:normal;solid-color:#000;solid-opacity:1" transform="translate(583.104 -138.137) scale(2.92733)"/><use xlink:href="#c" color="#000" overflow="visible" style="isolation:auto;mix-blend-mode:normal;solid-color:#000;solid-opacity:1" transform="translate(583.104 -138.137) scale(2.92733)"/><path fill="#f7f7f4" stroke-width=".214" d="m28.2 40.146 9.32 3.393 9.461-3.446-9.323-3.392z"/><path fill="#ffd242" stroke-width=".214" d="M37.52 43.539v10.957l9.461-3.446V40.093z"/><path fill="#efeeea" stroke-width=".214" d="m28.2 40.146 9.32 3.393v10.957L28.196 51.1z"/></g><g fill="#a29d86" stroke="#ccc" stroke-linejoin="bevel" stroke-width=".073"><use xlink:href="#a" color="#000" overflow="visible" style="isolation:auto;mix-blend-mode:normal;solid-color:#000;solid-opacity:1" transform="translate(573.74 -134.732) scale(2.92733)"/><use xlink:href="#b" color="#000" overflow="visible" style="isolation:auto;mix-blend-mode:normal;solid-color:#000;solid-opacity:1" transform="translate(573.74 -134.732) scale(2.92733)"/><use xlink:href="#c" color="#000" overflow="visible" style="isolation:auto;mix-blend-mode:normal;solid-color:#000;solid-opacity:1" transform="translate(573.74 -134.732) scale(2.92733)"/><path fill="#f7f7f4" stroke-width=".214" d="m18.835 43.551 9.32 3.393 9.462-3.446-9.323-3.392z"/><path fill="#fff" stroke-width=".214" d="M28.156 46.944v10.957l9.461-3.446V43.498z"/><path fill="#efeeea" stroke-width=".214" d="m18.835 43.551 9.32 3.393v10.957l-9.323-3.396z"/></g><g fill="#a29d86" stroke="#ccc" stroke-linejoin="bevel" stroke-width=".073"><use xlink:href="#a" color="#000" overflow="visible" style="isolation:auto;mix-blend-mode:normal;solid-color:#000;solid-opacity:1" transform="translate(601.83 -156.012) scale(2.92733)"/><use xlink:href="#b" color="#000" overflow="visible" style="isolation:auto;mix-blend-mode:normal;solid-color:#000;solid-opacity:1" transform="translate(601.83 -156.012) scale(2.92733)"/><use xlink:href="#c" color="#000" overflow="visible" style="isolation:auto;mix-blend-mode:normal;solid-color:#000;solid-opacity:1" transform="translate(601.83 -156.012) scale(2.92733)"/><path fill="#f7f7f4" stroke-width=".214" d="m46.925 22.271 9.32 3.393 9.462-3.446-9.323-3.392z"/><path fill="#ffd242" stroke-width=".214" d="M56.246 25.664v10.957l9.461-3.446V22.218z"/><path fill="#efeeea" stroke-width=".214" d="m46.925 22.271 9.32 3.393v10.957l-9.323-3.396z"/></g><g fill="#a29d86" stroke="#ccc" stroke-linejoin="bevel" stroke-width=".073"><use xlink:href="#a" color="#000" overflow="visible" style="isolation:auto;mix-blend-mode:normal;solid-color:#000;solid-opacity:1" transform="translate(601.83 -167.078) scale(2.92733)"/><use xlink:href="#b" color="#000" overflow="visible" style="isolation:auto;mix-blend-mode:normal;solid-color:#000;solid-opacity:1" transform="translate(601.83 -167.078) scale(2.92733)"/><use xlink:href="#c" color="#000" overflow="visible" style="isolation:auto;mix-blend-mode:normal;solid-color:#000;solid-opacity:1" transform="translate(601.83 -167.078) scale(2.92733)"/><path fill="#ffc91d" stroke-width=".214" d="m46.925 11.205 9.32 3.393 9.462-3.446-9.323-3.392z"/><path fill="#ffd242" stroke-width=".214" d="M56.246 14.598v10.957l9.461-3.446V11.152z"/><path fill="#efeeea" stroke-width=".214" d="m46.925 11.205 9.32 3.393v10.957l-9.323-3.396z"/></g><g fill="#a29d86" stroke="#ccc" stroke-linejoin="bevel" stroke-width=".073"><use xlink:href="#a" color="#000" overflow="visible" style="isolation:auto;mix-blend-mode:normal;solid-color:#000;solid-opacity:1" transform="translate(592.467 -152.608) scale(2.92733)"/><use xlink:href="#b" color="#000" overflow="visible" style="isolation:auto;mix-blend-mode:normal;solid-color:#000;solid-opacity:1" transform="translate(592.467 -152.608) scale(2.92733)"/><use xlink:href="#c" color="#000" overflow="visible" style="isolation:auto;mix-blend-mode:normal;solid-color:#000;solid-opacity:1" transform="translate(592.467 -152.608) scale(2.92733)"/><path fill="#f7f7f4" stroke-width=".214" d="m37.562 25.675 9.32 3.393 9.462-3.446-9.323-3.392z"/><path fill="#ffd242" stroke-width=".214" d="M46.883 29.068v10.957l9.461-3.446V25.622z"/><path fill="#efeeea" stroke-width=".214" d="m37.562 25.675 9.32 3.393v10.957l-9.323-3.396z"/></g><g fill="#a29d86" stroke="#ccc" stroke-linejoin="bevel" stroke-width=".073"><use xlink:href="#a" color="#000" overflow="visible" style="isolation:auto;mix-blend-mode:normal;solid-color:#000;solid-opacity:1" transform="translate(592.467 -163.673) scale(2.92733)"/><use xlink:href="#b" color="#000" overflow="visible" style="isolation:auto;mix-blend-mode:normal;solid-color:#000;solid-opacity:1" transform="translate(592.467 -163.673) scale(2.92733)"/><use xlink:href="#c" color="#000" overflow="visible" style="isolation:auto;mix-blend-mode:normal;solid-color:#000;solid-opacity:1" transform="translate(592.467 -163.673) scale(2.92733)"/><path fill="#f7f7f4" stroke-width=".214" d="m37.562 14.61 9.32 3.393 9.462-3.446-9.323-3.392z"/><path fill="#3775a9" stroke-width=".214" d="M46.883 18.003V28.96l9.461-3.446V14.557z"/><path fill="#efeeea" stroke-width=".214" d="m37.562 14.61 9.32 3.393V28.96l-9.323-3.396z"/></g><g fill="#a29d86" stroke="#ccc" stroke-linejoin="bevel" stroke-width=".073"><use xlink:href="#a" color="#000" overflow="visible" style="isolation:auto;mix-blend-mode:normal;solid-color:#000;solid-opacity:1" transform="translate(592.467 -174.739) scale(2.92733)"/><use xlink:href="#b" color="#000" overflow="visible" style="isolation:auto;mix-blend-mode:normal;solid-color:#000;solid-opacity:1" transform="translate(592.467 -174.739) scale(2.92733)"/><use xlink:href="#c" color="#000" overflow="visible" style="isolation:auto;mix-blend-mode:normal;solid-color:#000;solid-opacity:1" transform="translate(592.467 -174.739) scale(2.92733)"/><path fill="#2f6491" stroke-width=".214" d="m37.562 3.544 9.32 3.393 9.462-3.446L47.021.1z"/><path fill="#3775a9" stroke-width=".214" d="M46.883 6.937v10.957l9.461-3.446V3.491z"/><path fill="#efeeea" stroke-width=".214" d="m37.562 3.544 9.32 3.393v10.957l-9.323-3.396z"/></g><g fill="#a29d86" stroke="#ccc" stroke-linejoin="bevel" stroke-width=".073"><use xlink:href="#a" color="#000" overflow="visible" style="isolation:auto;mix-blend-mode:normal;solid-color:#000;solid-opacity:1" transform="translate(583.104 -149.203) scale(2.92733)"/><use xlink:href="#b" color="#000" overflow="visible" style="isolation:auto;mix-blend-mode:normal;solid-color:#000;solid-opacity:1" transform="translate(583.104 -149.203) scale(2.92733)"/><use xlink:href="#c" color="#000" overflow="visible" style="isolation:auto;mix-blend-mode:normal;solid-color:#000;solid-opacity:1" transform="translate(583.104 -149.203) scale(2.92733)"/><path fill="#f7f7f4" stroke-width=".214" d="m28.2 29.08 9.32 3.393 9.461-3.446-9.323-3.392z"/><path fill="#ffd242" stroke-width=".214" d="M37.52 32.473V43.43l9.461-3.446V29.027z"/><path fill="#efeeea" stroke-width=".214" d="m28.2 29.08 9.32 3.393V43.43l-9.324-3.396z"/></g><g fill="#a29d86" stroke="#ccc" stroke-linejoin="bevel" stroke-width=".073"><use xlink:href="#a" color="#000" overflow="visible" style="isolation:auto;mix-blend-mode:normal;solid-color:#000;solid-opacity:1" transform="translate(583.104 -160.268) scale(2.92733)"/><use xlink:href="#b" color="#000" overflow="visible" style="isolation:auto;mix-blend-mode:normal;solid-color:#000;solid-opacity:1" transform="translate(583.104 -160.268) scale(2.92733)"/><use xlink:href="#c" color="#000" overflow="visible" style="isolation:auto;mix-blend-mode:normal;solid-color:#000;solid-opacity:1" transform="translate(583.104 -160.268) scale(2.92733)"/><path fill="#f7f7f4" stroke-width=".214" d="m28.2 18.015 9.32 3.393 9.461-3.446-9.323-3.392z"/><path fill="#3775a9" stroke-width=".214" d="M37.52 21.408v10.957l9.461-3.446V17.962z"/><path fill="#efeeea" stroke-width=".214" d="m28.2 18.015 9.32 3.393v10.957l-9.324-3.396z"/></g><g fill="#a29d86" stroke="#ccc" stroke-linejoin="bevel" stroke-width=".073"><use xlink:href="#a" color="#000" overflow="visible" style="isolation:auto;mix-blend-mode:normal;solid-color:#000;solid-opacity:1" transform="translate(573.74 -145.798) scale(2.92733)"/><use xlink:href="#b" color="#000" overflow="visible" style="isolation:auto;mix-blend-mode:normal;solid-color:#000;solid-opacity:1" transform="translate(573.74 -145.798) scale(2.92733)"/><use xlink:href="#c" color="#000" overflow="visible" style="isolation:auto;mix-blend-mode:normal;solid-color:#000;solid-opacity:1" transform="translate(573.74 -145.798) scale(2.92733)"/><path fill="#f7f7f4" stroke-width=".214" d="m18.835 32.485 9.32 3.393 9.462-3.446-9.323-3.392z"/><path fill="#3775a9" stroke-width=".214" d="M28.156 35.878v10.957l9.461-3.446V32.432z"/><path fill="#2f6491" stroke-width=".214" d="m18.835 32.485 9.32 3.393v10.957l-9.323-3.396z"/></g><g fill="#a29d86" stroke="#ccc" stroke-linejoin="bevel" stroke-width=".073"><use xlink:href="#a" color="#000" overflow="visible" style="isolation:auto;mix-blend-mode:normal;solid-color:#000;solid-opacity:1" transform="translate(573.74 -156.864) scale(2.92733)"/><use xlink:href="#b" color="#000" overflow="visible" style="isolation:auto;mix-blend-mode:normal;solid-color:#000;solid-opacity:1" transform="translate(573.74 -156.864) scale(2.92733)"/><use xlink:href="#c" color="#000" overflow="visible" style="isolation:auto;mix-blend-mode:normal;solid-color:#000;solid-opacity:1" transform="translate(573.74 -156.864) scale(2.92733)"/><path fill="#2f6491" stroke-width=".214" d="m18.835 21.42 9.32 3.392 9.462-3.446-9.323-3.392z"/><path fill="#3775a9" stroke-width=".214" d="M28.156 24.812v10.957l9.461-3.446V21.366z"/><path fill="#2f6491" stroke-width=".214" d="m18.835 21.42 9.32 3.392v10.957l-9.323-3.396z"/></g><g transform="translate(-1683.66 -513.275) scale(.65177)"><g fill="#a29d86" stroke="#ccc" stroke-linejoin="bevel" stroke-width=".073"><use xlink:href="#a" color="#000" overflow="visible" style="isolation:auto;mix-blend-mode:normal;solid-color:#000;solid-opacity:1" transform="translate(3477.852 524.633) scale(4.49135)"/><use xlink:href="#b" color="#000" overflow="visible" style="isolation:auto;mix-blend-mode:normal;solid-color:#000;solid-opacity:1" transform="translate(3477.852 524.633) scale(4.49135)"/><use xlink:href="#c" color="#000" overflow="visible" style="isolation:auto;mix-blend-mode:normal;solid-color:#000;solid-opacity:1" transform="translate(3477.852 524.633) scale(4.49135)"/><path fill="#2f6491" stroke-width=".328" d="m2626.472 798.17 14.3 5.205 14.516-5.286-14.305-5.206z"/><path fill="#3775a9" stroke-width=".328" d="M2640.772 803.375v16.811l14.516-5.286v-16.811z"/><path fill="#2f6491" stroke-width=".328" d="m2626.472 798.17 14.3 5.205v16.811l-14.305-5.21z"/></g><circle cx="2816.017" cy="1772.922" r="2.967" fill="#fff" transform="skewY(-20) scale(.9397 1)"/></g></svg>