<?xml version="1.0" encoding="UTF-8" standalone="no"?>
<svg
   id="Layer_1"
   data-name="Layer 1"
   viewBox="0 0 64 64"
   version="1.1"
   sodipodi:docname="Icon.svg"
   inkscape:version="1.2.1 (9c6d41e410, 2022-07-14)"
   xmlns:inkscape="http://www.inkscape.org/namespaces/inkscape"
   xmlns:sodipodi="http://sodipodi.sourceforge.net/DTD/sodipodi-0.dtd"
   xmlns="http://www.w3.org/2000/svg"
   xmlns:svg="http://www.w3.org/2000/svg"
   xmlns:rdf="http://www.w3.org/1999/02/22-rdf-syntax-ns#"
   xmlns:cc="http://creativecommons.org/ns#"
   xmlns:dc="http://purl.org/dc/elements/1.1/">
  <defs
     id="defs144" />
  <sodipodi:namedview
     id="namedview142"
     pagecolor="#ffffff"
     bordercolor="#666666"
     borderopacity="1.0"
     inkscape:showpageshadow="2"
     inkscape:pageopacity="0.0"
     inkscape:pagecheckerboard="0"
     inkscape:deskcolor="#d1d1d1"
     showgrid="false"
     inkscape:zoom="3.6875"
     inkscape:cx="32"
     inkscape:cy="32"
     inkscape:window-width="2560"
     inkscape:window-height="1377"
     inkscape:window-x="2552"
     inkscape:window-y="-8"
     inkscape:window-maximized="1"
     inkscape:current-layer="Layer_1" />
  <title
     id="title131">jdSimpleAutostartIcon</title>
  <path
     d="M33.43,4.43a2.93,2.93,0,0,0-2.86,0C23.2,8.56,18,18.64,18,30.43a34.83,34.83,0,0,0,5.13,18.71,5.62,5.62,0,0,0,4.73,2.58h8.28a5.62,5.62,0,0,0,4.73-2.58A34.83,34.83,0,0,0,46,30.43C46,18.64,40.8,8.56,33.43,4.43ZM32,31.71a6,6,0,1,1,6-6A6,6,0,0,1,32,31.71Z"
     id="path133" />
  <path
     d="M40.94,57.59l-.53-1.06a1.47,1.47,0,0,0-1.32-.81H24.91a1.47,1.47,0,0,0-1.32.81l-.53,1.06a1.47,1.47,0,0,0,1.32,2.13H39.62A1.47,1.47,0,0,0,40.94,57.59Z"
     id="path135" />
  <path
     d="M13,42.09l0,0L7.93,47.2a11.45,11.45,0,0,0-3.35,8.09v2.4a2.25,2.25,0,0,0,3.36,2l10.46-6a2.25,2.25,0,0,0,1-2.66l-.24-.71a35.6,35.6,0,0,1-3.28-7.36A1.76,1.76,0,0,0,13,42.09Z"
     id="path137" />
  <path
     d="M51,42.11l0,0a1.76,1.76,0,0,0-2.86.84,35.6,35.6,0,0,1-3.28,7.36l-.24.71a2.25,2.25,0,0,0,1,2.66l10.46,6a2.25,2.25,0,0,0,3.36-2v-2.4a11.45,11.45,0,0,0-3.35-8.09Z"
     id="path139" />
  <path
     style="fill:#000080;stroke-width:0.271186"
     d="M 25.413919,50.949643 C 24.129125,50.313684 23.215721,49.134167 21.764727,46.237288 18.897478,40.512887 17.699175,33.975932 18.306647,27.372846 19.244263,17.181169 23.594577,9.0088485 30.336932,4.7732465 c 1.224494,-0.7692369 2.445414,-0.6218057 4.133715,0.499163 8.868934,5.8886415 13.482129,20.7747575 10.425928,33.6429885 -0.98662,4.154205 -3.364805,9.409416 -4.996545,11.041155 -1.443491,1.443493 -2.079747,1.568892 -7.959116,1.568656 -4.920864,-1.95e-4 -5.460796,-0.04781 -6.526995,-0.575566 z m 9.348247,-19.787552 c 3.741612,-1.811284 4.492483,-6.772288 1.478398,-9.767778 -4.8498,-4.819878 -12.589207,0.751706 -9.690826,6.976407 0.636194,1.36632 1.838451,2.53163 3.153281,3.056374 1.213815,0.484431 3.789752,0.3495 5.059147,-0.265003 z"
     id="path215" />
  <path
     style="fill:#000080;stroke-width:0.271186"
     d="m 51.374962,56.797522 c -5.501607,-3.113386 -6.764793,-4.041857 -6.764793,-4.972279 0,-0.265923 0.587524,-1.693016 1.305608,-3.171319 0.718084,-1.478302 1.590636,-3.459721 1.939005,-4.403153 0.668745,-1.811061 1.516364,-2.648887 2.397059,-2.369365 0.283627,0.09002 2.003037,1.680642 3.820912,3.534715 4.291182,4.376633 4.94199,5.653412 5.11842,10.041506 0.115101,2.862771 0.09419,3.006397 -0.518669,3.562052 -1.263985,1.146009 -1.440931,1.092127 -7.297542,-2.222157 z"
     id="path217" />
  <path
     style="fill:#000080;stroke-width:0.271186"
     d="M 5.5661473,59.16719 C 4.7819644,58.383007 4.7457627,58.245233 4.7457627,56.045022 c 0,-2.677768 0.6136513,-4.958327 1.8544886,-6.891975 1.1462908,-1.786313 6.8739377,-7.390335 7.5533657,-7.390335 0.798722,0 1.366841,0.772562 2.244823,3.052647 0.431688,1.121077 1.28135,3.025738 1.888139,4.232581 1.270751,2.527397 1.330972,3.008282 0.493082,3.937407 C 18.113573,53.723963 8.0973774,59.55818 7.0396393,59.823655 6.5440427,59.948042 6.1886786,59.789721 5.5661473,59.16719 Z"
     id="path219" />
  <path
     style="fill:#000080;stroke-width:0.271186"
     d="m 23.661017,59.368109 c -0.630585,-0.367282 -0.60187,-1.528888 0.06482,-2.622346 L 24.26321,55.864407 H 32 39.736786 l 0.537373,0.881356 c 0.692395,1.13561 0.698783,2.268499 0.01486,2.634526 -0.7034,0.376449 -15.979974,0.365258 -16.627997,-0.01218 z"
     id="path221" />
  <metadata
     id="metadata223">
    <rdf:RDF>
      <cc:Work
         rdf:about="">
        <dc:title>jdSimpleAutostartIcon</dc:title>
      </cc:Work>
    </rdf:RDF>
  </metadata>
</svg>
