<?xml version="1.0" encoding="UTF-8"?><svg xmlns="http://www.w3.org/2000/svg" viewBox="0 0 500 500"><g fill-rule="evenodd"><path fill="#ffc107" d="M150 75c-1.43 1.13-3.06 3.71-3.63 5.75-.602 2.17-1.03 16.5-1.03 34.5l-.006 30.8h74v-16l1.22-16 5.87-10.6c3.9-5.82 8.54-10.4 8.08-10.8-1.27-1.13-75.7-19.5-79-19.5-1.58 0-4.04.92-5.48 2.04m177 6.87c-19 4.8-35.7 9.04-37.2 9.43l-2.75.697 15 22.4v31.5h73v-67.2l-2.92-2.92c-2.27-2.27-3.78-2.9-6.75-2.83-2.1.05-19.4 4.02-38.3 8.82"/><path fill="#1565c0" d="M250 72.5V83h21V62h-21v10.5m-21 146v63h63v-126h-63v63"/><path fill="#81d4fa" d="M390 353c-13.1 21.2-22 39.2-24.5 49.7-2.18 9.16.319 17.6 7.53 25.3 6.42 6.87 12.7 9.41 23.4 9.42 7.23.006 9.34-.402 14.2-2.73 14.6-7.06 20.2-21.4 14.7-37.7-3.87-11.5-26.6-53-29-53-.405 0-3.24 4.05-6.3 8.99"/><path fill="#ff9800" d="m229 98.4-10 15.4-.386 21.3-.386 21.3 83.5.261v-42l-7.5-11.2c-4.12-6.17-7.5-11.5-7.5-11.8 0-.297-1.18-2.33-2.63-4.52l-2.63-3.98h-42.4l-10 15.4"/><path fill="#2089e9" d="M62 219v94h53v-52h114v-84H115v-52H62v94m230 0v42h28.4c26.5 0 28.6.13 30.8 1.91l2.36 1.91.566 79.2h84l-.42-44.8c-.483-51.4-.761-53.5-9.69-71.8-10-20.5-27.8-36.1-50.8-44.5-14.5-5.28-21.4-6.05-54.9-6.05h-30.4v42"/></g></svg>