<?xml version="1.0" encoding="UTF-8" standalone="no"?>
<!-- Created with Inkscape (http://www.inkscape.org/) -->

<svg
   width="70.15715mm"
   height="41.452061mm"
   viewBox="0 0 70.15715 41.452061"
   version="1.1"
   id="svg1"
   sodipodi:docname="ga-logo.svg"
   inkscape:version="1.3 (0e150ed6c4, 2023-07-21)"
   inkscape:export-filename="ga-logo.png"
   inkscape:export-xdpi="96"
   inkscape:export-ydpi="96"
   xmlns:inkscape="http://www.inkscape.org/namespaces/inkscape"
   xmlns:sodipodi="http://sodipodi.sourceforge.net/DTD/sodipodi-0.dtd"
   xmlns="http://www.w3.org/2000/svg"
   xmlns:svg="http://www.w3.org/2000/svg">
  <sodipodi:namedview
     id="namedview1"
     pagecolor="#ffffff"
     bordercolor="#000000"
     borderopacity="0.25"
     inkscape:showpageshadow="2"
     inkscape:pageopacity="0.0"
     inkscape:pagecheckerboard="0"
     inkscape:deskcolor="#d1d1d1"
     inkscape:document-units="mm"
     inkscape:zoom="1.4805976"
     inkscape:cx="314.73777"
     inkscape:cy="344.7932"
     inkscape:window-width="1920"
     inkscape:window-height="1009"
     inkscape:window-x="-8"
     inkscape:window-y="1072"
     inkscape:window-maximized="1"
     inkscape:current-layer="layer1" />
  <defs
     id="defs1" />
  <g
     inkscape:label="Laag 1"
     inkscape:groupmode="layer"
     id="layer1"
     transform="translate(-62.778688,-65.185827)">
    <text
       xml:space="preserve"
       style="font-style:normal;font-variant:normal;font-weight:normal;font-stretch:normal;font-size:24.8104px;font-family:'Franklin Gothic Book';-inkscape-font-specification:'Franklin Gothic Book, ';fill:#bb0d0d;fill-opacity:1;fill-rule:evenodd;stroke:#5f5f5f;stroke-width:0.465927;stroke-opacity:1"
       x="55.860603"
       y="89.268204"
       id="text1"
       transform="scale(1.1029015,0.90669928)"><tspan
         sodipodi:role="line"
         style="font-style:normal;font-variant:normal;font-weight:bold;font-stretch:normal;font-family:Rockwell;-inkscape-font-specification:'Rockwell Bold';fill:#bb0d0d;fill-opacity:1;stroke:#5f5f5f;stroke-width:0.465928;stroke-opacity:1"
         x="55.860603"
         y="89.268204"
         id="tspan2">Good</tspan></text>
    <text
       xml:space="preserve"
       style="font-style:normal;font-variant:normal;font-weight:normal;font-stretch:normal;font-size:17.6582px;font-family:'Franklin Gothic Book';-inkscape-font-specification:'Franklin Gothic Book, ';fill:#5f5f5f;fill-opacity:1;fill-rule:evenodd;stroke:#ee7320;stroke-width:0.331609"
       x="66.386604"
       y="97.154152"
       id="text3"
       transform="scale(1.034311,0.96682721)"><tspan
         sodipodi:role="line"
         id="tspan3"
         style="font-style:normal;font-variant:normal;font-weight:bold;font-stretch:normal;font-family:Rockwell;-inkscape-font-specification:'Rockwell Bold';fill:#5f5f5f;fill-opacity:1;stroke:#5e5e5e;stroke-width:0.331612;stroke-opacity:1"
         x="66.386604"
         y="97.154152">Advice</tspan></text>
    <text
       xml:space="preserve"
       style="font-style:normal;font-variant:normal;font-weight:normal;font-stretch:normal;font-size:15.6825px;font-family:'Franklin Gothic Book';-inkscape-font-specification:'Franklin Gothic Book, ';fill:#eb6b13;fill-rule:evenodd;stroke:#ee7320;stroke-width:0.294509"
       x="99.332329"
       y="118.71491"
       id="text4"
       transform="scale(1.1147921,0.89702824)"><tspan
         sodipodi:role="line"
         id="tspan4"
         style="font-style:normal;font-variant:normal;font-weight:bold;font-stretch:normal;font-family:Rockwell;-inkscape-font-specification:'Rockwell Bold';fill:#494949;fill-opacity:1;stroke:#000000;stroke-width:0.29451;stroke-opacity:1"
         x="99.332329"
         y="118.71491">IT</tspan></text>
    <path
       style="fill:#2a2a2a;fill-opacity:1;fill-rule:evenodd;stroke:#5f5f5f;stroke-width:0.264999;stroke-opacity:1"
       id="path12"
       d="m 68.119364,99.566999 c 0.422466,-0.0721 0.852165,-0.0928 1.279401,-0.11801 0.989603,-0.0532 1.981055,-0.0641 2.971834,-0.0779 1.38398,-0.0181 2.768055,-0.0258 4.152128,-0.0325 1.564764,-0.005 3.129528,-0.008 4.694301,-0.007 1.579877,0.004 3.159762,0.006 4.739637,0.0109 1.548154,0.007 3.096249,0.009 4.644387,-0.001 1.538372,-0.0119 3.076753,-0.021 4.615053,-0.0402 1.422612,-0.018 2.845263,-0.03259 4.267872,-0.05075 1.326673,-0.02641 2.653373,-0.03111 3.980223,-0.02392 1.29504,0.0073 2.59003,0.02093 3.88499,0.03677 0.82312,0.01037 0.41339,0.0052 1.2292,0.01556 0,0 0.20764,-2.647577 0.20764,-2.647577 v 0 c -0.81626,-0.0021 -0.4063,-0.0011 -1.22987,-0.0033 -1.29712,-0.0044 -2.59422,-0.01243 -3.89131,-0.02199 -1.33934,-0.0056 -2.67875,0.0021 -4.017776,0.03392 -1.42273,0.02959 -2.845331,0.06494 -4.268083,0.09361 -1.533451,0.02779 -3.067019,0.04228 -4.600697,0.05092 -1.544029,0.0094 -3.088068,0.007 -4.632119,0.0071 -1.579954,7.94e-4 -3.159908,-0.0013 -4.739859,-0.0024 -1.563804,-0.0033 -3.127584,-0.01135 -4.691351,-0.02275 -1.381704,-0.01222 -2.763406,-0.02593 -4.144944,-0.05144 -1.000289,-0.01905 -2.000385,-0.0462 -3.000631,-0.06713 -0.469255,-0.0094 -0.9383,-0.02643 -1.407594,-0.03284 z" />
  </g>
</svg>
